M48
;Layer_Color=9474304
;FILE_FORMAT=4:4
METRIC,LZ
;TYPE=PLATED
T01F00S00C0.2500
T02F00S00C0.3000
T03F00S00C0.6000
T04F00S00C0.7000
T05F00S00C0.7620
T06F00S00C0.8000
T07F00S00C0.8128
T08F00S00C0.9000
T09F00S00C0.9500
T10F00S00C1.0000
T12F00S00C1.0200
T13F00S00C1.1000
T14F00S00C1.1500
T15F00S00C3.0480
%
T01
X0057658Y0037592
T02
X0060706Y002667
X0086106Y0028321
Y0022479
T03
X0073533Y0023114
X0076033
X0075926Y0030353
X0073426
X0082189Y0034544
X0084689
Y0038608
X0082189
X0099354Y0025908
X0101854
T04
X0081915Y0003723
X008513Y0002667
X009013
X0081915Y0008723
T05
X0126492Y0069469
X0129032
X0131572
T06
X0058293Y0013542
Y0023542
T07
X0068361Y0019184
Y0021784
Y0024384
T08
X0047371Y0002413
X0049911
X0052451
X0054991
X0057531
X0060071
X0062611
Y0010033
X0060071
X0057531
X0054991
X0052451
X0049911
X0047371
X0045974Y0018542
Y0021082
Y0023622
Y0026162
Y0028702
Y0031242
Y0033782
X0053594
Y0031242
Y0028702
Y0026162
Y0023622
Y0021082
Y0018542
X007497Y0014732
X007747
X0078232Y0010033
X0075692
X0073152
X0070612
Y0002413
X0073152
X0075692
X0078232
X007997Y0014732
X0101473Y003175
X0104013
X0106553
X0109093
X0111633
X0114173
X0116713
Y003937
X0114173
X0111633
X0109093
X0106553
X0104013
X0101473
X00508Y004445
Y004699
Y004953
Y005207
Y005461
Y005715
Y005969
X004318
Y005715
Y005461
Y005207
Y004953
Y004699
Y004445
T09
X0064424Y0019244
Y0021844
Y0024444
X0060072Y0030166
Y0032766
Y0035366
X0068835
Y0032766
Y0030166
T10
X0073914Y0020066
X0076454
X0078994
X0079248Y0027305
X0076708
X0074168
X0074295Y0034544
X0076835
Y0038608
X0074295
X0079375
Y0034544
X0090932Y0029083
X0093472
X0096012
Y0022987
X0093472
X0090932
X0099822Y002286
X0102362
X0104902
X0112522Y0026543
X0115062
X0117602
X0127508Y0046482
X0130048
X0132588
X0039878Y0047752
Y0050292
Y0052832
Y0056642
Y0059182
Y0061722
T12
X0039878Y0009779
Y0012319
Y0014859
Y0017399
X008636Y0019685
X00889
X0088773Y0011811
Y0009271
Y0006731
X0086233
Y0009271
Y0011811
X0083185Y0023241
Y0025781
Y0028321
Y0030861
X0098933Y0018415
X0101473
X0104013
X0106553
X0109093
X0111633
X0114173
X0116713
X0117221Y0022987
X0114681
X0112141
X0109601
X0109093Y0003175
X0106553
X0104013
X0101473
X0098933
X0111633
X0114173
X0116713
X0119253
X0121793
X0124333
X0126873
X0129413
X0131953
X0134493
Y0018415
X0131953
X0129413
X0126873
X0124333
X0121793
X0119253
X0121793Y0022987
X0124333
X0039878Y0041148
Y0043688
X0124714Y0084582
X0127254
T13
X0127635Y0057404
X0130175
X0132715
T14
X0126656Y0034544
Y0038354
X0134456
Y0034544
Y0064516
X0126656
T15
X0040767Y0004064
X0132334Y0008255
X0040767Y0083312
X0132334
M30
