G04*
G04 #@! TF.GenerationSoftware,Altium Limited,Altium Designer,24.6.1 (21)*
G04*
G04 Layer_Color=0*
%FSLAX44Y44*%
%MOMM*%
G71*
G04*
G04 #@! TF.SameCoordinates,44A1DD27-CD51-42AF-A16C-F6F8CAE25C75*
G04*
G04*
G04 #@! TF.FilePolarity,Positive*
G04*
G01*
G75*
%ADD12C,0.2540*%
%ADD134C,0.1000*%
D12*
X896620Y149940D02*
Y159940D01*
X891620Y154940D02*
X901620D01*
X904240Y519510D02*
Y529510D01*
X899240Y524510D02*
X909240D01*
X958930Y387350D02*
X968930D01*
X963930Y382350D02*
Y392350D01*
X1210390Y345434D02*
X1220390D01*
X1215390Y340434D02*
Y350434D01*
X398780Y586820D02*
Y596820D01*
X393780Y591820D02*
X403780D01*
X1024890Y748110D02*
Y758110D01*
X1019890Y753110D02*
X1029890D01*
X1143000Y519510D02*
Y529510D01*
X1138000Y524510D02*
X1148000D01*
X637540Y337900D02*
Y347900D01*
X632540Y342900D02*
X642540D01*
X659130Y338300D02*
Y348300D01*
X654130Y343300D02*
X664130D01*
X692150Y322660D02*
Y332660D01*
X687150Y327660D02*
X697150D01*
X433150Y402590D02*
X443150D01*
X438150Y397590D02*
Y407590D01*
X530860Y574120D02*
Y584120D01*
X525860Y579120D02*
X535860D01*
X635440Y218440D02*
X645440D01*
X640440Y213440D02*
Y223440D01*
X952580Y260350D02*
X962580D01*
X957580Y255350D02*
Y265350D01*
X929720Y290830D02*
X939720D01*
X934720Y285830D02*
Y295830D01*
X1001040Y259080D02*
X1011040D01*
X1006040Y254080D02*
Y264080D01*
X768350Y340440D02*
Y350440D01*
X763350Y345440D02*
X773350D01*
X819150Y57230D02*
Y67230D01*
X814150Y62230D02*
X824150D01*
X875030Y87710D02*
Y97710D01*
X870030Y92710D02*
X880030D01*
X665160Y20320D02*
X675160D01*
X670160Y15320D02*
Y25320D01*
X934800Y360680D02*
X944800D01*
X939800Y355680D02*
Y365680D01*
X934800Y325120D02*
X944800D01*
X939800Y320120D02*
Y330120D01*
X1219274Y393700D02*
X1229274D01*
X1224274Y388700D02*
Y398700D01*
X1160860Y290830D02*
X1170860D01*
X1165860Y285830D02*
Y295830D01*
X1092200Y276940D02*
Y286940D01*
X1087200Y281940D02*
X1097200D01*
X1070610Y276940D02*
Y286940D01*
X1065610Y281940D02*
X1075610D01*
X1019890Y292100D02*
X1029890D01*
X1024890Y287100D02*
Y297100D01*
X1239520Y325200D02*
Y335200D01*
X1234520Y330200D02*
X1244520D01*
X1215390Y279480D02*
Y289480D01*
X1210390Y284480D02*
X1220390D01*
X1243810Y294640D02*
X1253810D01*
X1248810Y289640D02*
Y299640D01*
X541020Y749380D02*
Y759380D01*
X536020Y754380D02*
X546020D01*
X660400Y519320D02*
Y529320D01*
X655400Y524320D02*
X665400D01*
X1329690Y409020D02*
Y419020D01*
X1324690Y414020D02*
X1334690D01*
X1330602Y608330D02*
X1340602D01*
X1335602Y603330D02*
Y613330D01*
X1281948Y608330D02*
X1291948D01*
X1286948Y603330D02*
Y613330D01*
X1280598Y409020D02*
Y419020D01*
X1275598Y414020D02*
X1285598D01*
X776050Y754380D02*
X786050D01*
X781050Y749380D02*
Y759380D01*
X426800Y96520D02*
X436800D01*
X431800Y91520D02*
Y101520D01*
X476330Y134620D02*
X486330D01*
X481330Y129620D02*
Y139620D01*
X510978Y129620D02*
Y139620D01*
X505978Y134620D02*
X515978D01*
X447040Y129620D02*
Y139620D01*
X442040Y134620D02*
X452040D01*
X876300Y21670D02*
Y31670D01*
X871300Y26670D02*
X881300D01*
X850980Y158750D02*
X860980D01*
X855980Y153750D02*
Y163750D01*
X762080Y273050D02*
X772080D01*
X767080Y268050D02*
Y278050D01*
X759540Y200660D02*
X769540D01*
X764540Y195660D02*
Y205660D01*
X763350Y386080D02*
X773350D01*
X768350Y381080D02*
Y391080D01*
X1018620Y228600D02*
X1028620D01*
X1023620Y223600D02*
Y233600D01*
X829390Y345440D02*
X839390D01*
X834390Y340440D02*
Y350440D01*
Y381080D02*
Y391080D01*
X829390Y386080D02*
X839390D01*
X742830Y231140D02*
X752830D01*
X747830Y226140D02*
Y236140D01*
X741760Y303530D02*
X751760D01*
X746760Y298530D02*
Y308530D01*
X788750Y300990D02*
X798750D01*
X793750Y295990D02*
Y305990D01*
X786210Y228600D02*
X796210D01*
X791210Y223600D02*
Y233600D01*
X869660Y386080D02*
X879660D01*
X874660Y381080D02*
Y391080D01*
X397510Y328089D02*
Y338089D01*
X392510Y333089D02*
X402510D01*
X561340Y339170D02*
Y349170D01*
X556340Y344170D02*
X566340D01*
X542290Y129620D02*
Y139620D01*
X537290Y134620D02*
X547290D01*
X567770Y266700D02*
X577770D01*
X572770Y261700D02*
Y271700D01*
X641350Y144860D02*
Y154860D01*
X636350Y149860D02*
X646350D01*
X392510Y375920D02*
X402510D01*
X397510Y370920D02*
Y380920D01*
X632123Y269240D02*
X642123D01*
X637123Y264240D02*
Y274240D01*
X473710Y395050D02*
Y405050D01*
X468710Y400050D02*
X478710D01*
X632540Y304800D02*
X642540D01*
X637540Y299800D02*
Y309800D01*
X856060Y313690D02*
X866060D01*
X861060Y308690D02*
Y318690D01*
X654130Y305170D02*
X664130D01*
X659130Y300170D02*
Y310170D01*
X1043570Y255350D02*
Y265350D01*
X1038570Y260350D02*
X1048570D01*
X870030Y345440D02*
X880030D01*
X875030Y340440D02*
Y350440D01*
X856060Y250190D02*
X866060D01*
X861060Y245190D02*
Y255190D01*
X923566Y396240D02*
X933566D01*
X928566Y391240D02*
Y401240D01*
X599520Y327660D02*
X609520D01*
X604520Y322660D02*
Y332660D01*
X670560Y58151D02*
Y68151D01*
X665560Y63151D02*
X675560D01*
X618490Y144860D02*
Y154860D01*
X613490Y149860D02*
X623490D01*
X678260Y125730D02*
X688260D01*
X683260Y120730D02*
Y130730D01*
X397510Y270590D02*
Y280590D01*
X392510Y275590D02*
X402510D01*
X430530Y187602D02*
Y197602D01*
X425530Y192602D02*
X435530D01*
X410290Y228600D02*
X420290D01*
X415290Y223600D02*
Y233600D01*
X429340Y162560D02*
X439340D01*
X434340Y157560D02*
Y167560D01*
X769700Y147320D02*
X779700D01*
X774700Y142320D02*
Y152320D01*
X430530Y271866D02*
Y281866D01*
X425530Y276866D02*
X435530D01*
X577930Y185420D02*
X587930D01*
X582930Y180420D02*
Y190420D01*
X425530Y322580D02*
X435530D01*
X430530Y317580D02*
Y327580D01*
X425530Y359410D02*
X435530D01*
X430530Y354410D02*
Y364410D01*
X684530Y153750D02*
Y163750D01*
X679530Y158750D02*
X689530D01*
X393780Y502920D02*
X403780D01*
X398780Y497920D02*
Y507920D01*
X600710Y370920D02*
Y380920D01*
X595710Y375920D02*
X605710D01*
X1150620Y260430D02*
Y270430D01*
X1145620Y265430D02*
X1155620D01*
X934720Y224870D02*
Y234870D01*
X929720Y229870D02*
X939720D01*
D134*
X1248410Y255350D02*
Y265350D01*
X1243410Y260350D02*
X1253410D01*
M02*
