G04*
G04 #@! TF.GenerationSoftware,Altium Limited,Altium Designer,24.6.1 (21)*
G04*
G04 Layer_Color=16711935*
%FSLAX44Y44*%
%MOMM*%
G71*
G04*
G04 #@! TF.SameCoordinates,44A1DD27-CD51-42AF-A16C-F6F8CAE25C75*
G04*
G04*
G04 #@! TF.FilePolarity,Negative*
G04*
G01*
G75*
%ADD50C,1.7532*%
%ADD51R,1.7532X1.7532*%
%ADD52C,1.7332*%
%ADD53R,1.7332X1.7332*%
%ADD54C,6.1976*%
%ADD55C,1.8532*%
%ADD56R,2.3032X1.7032*%
%ADD57R,1.7032X2.3032*%
%ADD58R,1.8032X1.8032*%
%ADD59C,1.8032*%
%ADD60C,1.5500*%
%ADD61R,1.5500X1.5500*%
%ADD62C,0.7032*%
%ADD63R,1.4500X1.4500*%
%ADD64C,1.4500*%
%ADD65R,1.7032X1.7032*%
%ADD66C,1.7032*%
%ADD67R,1.7532X1.7532*%
%ADD68R,1.5500X1.5500*%
%ADD69C,1.1000*%
%ADD70R,1.1000X1.1000*%
%ADD71C,1.2000*%
%ADD72R,1.2000X1.2000*%
%ADD73C,1.5700*%
%ADD74R,1.5700X1.5700*%
%ADD75R,1.7032X1.7032*%
%ADD76R,1.9032X1.9032*%
%ADD77C,1.9032*%
%ADD78R,1.2700X1.2700*%
%ADD79C,1.2700*%
%ADD80R,1.2000X1.2000*%
%ADD81C,1.4000*%
%ADD82R,1.4000X1.4000*%
%ADD83C,1.3208*%
%ADD84R,1.3208X1.3208*%
%ADD85C,1.3000*%
%ADD86R,1.3000X1.3000*%
D50*
X1247140Y845820D02*
D03*
X398780Y436880D02*
D03*
X831850Y308610D02*
D03*
Y283210D02*
D03*
Y257810D02*
D03*
X1217930Y229870D02*
D03*
X398780Y123190D02*
D03*
Y148590D02*
D03*
Y173990D02*
D03*
X889000Y196850D02*
D03*
X1172210Y229870D02*
D03*
X1146810D02*
D03*
X1121410D02*
D03*
D51*
X1272540Y845820D02*
D03*
X1243330Y229870D02*
D03*
X863600Y196850D02*
D03*
X1096010Y229870D02*
D03*
D52*
X989330Y31750D02*
D03*
Y184150D02*
D03*
X1014730Y31750D02*
D03*
Y184150D02*
D03*
X1040130Y31750D02*
D03*
Y184150D02*
D03*
X1065530Y31750D02*
D03*
Y184150D02*
D03*
X1090930Y31750D02*
D03*
Y184150D02*
D03*
X1116330Y31750D02*
D03*
Y184150D02*
D03*
X1141730Y31750D02*
D03*
Y184150D02*
D03*
X1167130Y31750D02*
D03*
Y184150D02*
D03*
X1192530Y31750D02*
D03*
Y184150D02*
D03*
X1217930Y31750D02*
D03*
Y184150D02*
D03*
X1243330Y31750D02*
D03*
Y184150D02*
D03*
X1268730Y31750D02*
D03*
Y184150D02*
D03*
X1294130Y31750D02*
D03*
Y184150D02*
D03*
X1319530Y31750D02*
D03*
Y184150D02*
D03*
D53*
X1344930Y31750D02*
D03*
Y184150D02*
D03*
D54*
X1323340Y82550D02*
D03*
Y833120D02*
D03*
X407670D02*
D03*
Y40640D02*
D03*
D55*
X1344560Y383540D02*
D03*
X1266560D02*
D03*
X1344560Y345440D02*
D03*
X1266560D02*
D03*
X1344560Y645160D02*
D03*
X1266560D02*
D03*
D56*
X1313660Y309890D02*
D03*
D57*
X1343660Y262890D02*
D03*
X1283660D02*
D03*
D58*
X1325880Y464820D02*
D03*
D59*
X1300480D02*
D03*
X1275080D02*
D03*
D60*
X398780Y566420D02*
D03*
Y591820D02*
D03*
X960120Y290830D02*
D03*
X934720D02*
D03*
X768350Y345440D02*
D03*
X793750D02*
D03*
X767080Y273050D02*
D03*
X792480D02*
D03*
X789940Y200660D02*
D03*
X764540D02*
D03*
X793750Y386080D02*
D03*
X768350D02*
D03*
X1049020Y228600D02*
D03*
X1023620D02*
D03*
X398780Y502920D02*
D03*
Y477520D02*
D03*
X934720Y229870D02*
D03*
X909320D02*
D03*
X1150620Y265430D02*
D03*
X1176020D02*
D03*
D61*
X398780Y617220D02*
D03*
Y528320D02*
D03*
D62*
X576580Y375920D02*
D03*
X607060Y266700D02*
D03*
X861060Y283210D02*
D03*
Y224790D02*
D03*
D63*
X688350Y353660D02*
D03*
X644240Y192440D02*
D03*
X600720Y353660D02*
D03*
D64*
X688350Y327660D02*
D03*
Y301660D02*
D03*
X644240Y218440D02*
D03*
Y244440D02*
D03*
X600720Y301660D02*
D03*
Y327660D02*
D03*
D65*
X508000Y444500D02*
D03*
X535940Y185420D02*
D03*
D66*
X508000Y469900D02*
D03*
Y495300D02*
D03*
Y520700D02*
D03*
Y546100D02*
D03*
Y571500D02*
D03*
Y596900D02*
D03*
X431800Y444500D02*
D03*
Y469900D02*
D03*
Y495300D02*
D03*
Y520700D02*
D03*
Y546100D02*
D03*
Y571500D02*
D03*
Y596900D02*
D03*
X1167130Y393700D02*
D03*
X1141730D02*
D03*
X1116330D02*
D03*
X1090930D02*
D03*
X1065530D02*
D03*
X1040130D02*
D03*
X1014730D02*
D03*
X1167130Y317500D02*
D03*
X1141730D02*
D03*
X1116330D02*
D03*
X1090930D02*
D03*
X1065530D02*
D03*
X1040130D02*
D03*
X473710Y24130D02*
D03*
X499110D02*
D03*
X524510D02*
D03*
X549910D02*
D03*
X575310D02*
D03*
X600710D02*
D03*
X626110D02*
D03*
X499110Y100330D02*
D03*
X524510D02*
D03*
X549910D02*
D03*
X575310D02*
D03*
X600710D02*
D03*
X473710D02*
D03*
X756920D02*
D03*
X731520D02*
D03*
X706120D02*
D03*
X782320Y24130D02*
D03*
X756920D02*
D03*
X731520D02*
D03*
X706120D02*
D03*
X459740Y337820D02*
D03*
Y312420D02*
D03*
Y287020D02*
D03*
Y261620D02*
D03*
Y236220D02*
D03*
Y210820D02*
D03*
Y185420D02*
D03*
X535940Y337820D02*
D03*
Y312420D02*
D03*
Y287020D02*
D03*
Y261620D02*
D03*
Y236220D02*
D03*
Y210820D02*
D03*
D67*
X398780Y411480D02*
D03*
X831850Y232410D02*
D03*
X398780Y97790D02*
D03*
D68*
X909320Y290830D02*
D03*
X742950Y345440D02*
D03*
X741680Y273050D02*
D03*
X739140Y200660D02*
D03*
X742950Y386080D02*
D03*
X998220Y228600D02*
D03*
X960120Y229870D02*
D03*
X1125220Y265430D02*
D03*
D69*
X1018540Y259080D02*
D03*
X846890Y345440D02*
D03*
Y386080D02*
D03*
X735330Y231140D02*
D03*
X734260Y303530D02*
D03*
D70*
X993540Y259080D02*
D03*
X821890Y345440D02*
D03*
Y386080D02*
D03*
X760330Y231140D02*
D03*
X759260Y303530D02*
D03*
D71*
X819150Y87230D02*
D03*
X901300Y26670D02*
D03*
D72*
X819150Y37230D02*
D03*
D73*
X887730Y67310D02*
D03*
Y92710D02*
D03*
Y118110D02*
D03*
X862330Y67310D02*
D03*
Y92710D02*
D03*
D74*
Y118110D02*
D03*
D75*
X1014730Y317500D02*
D03*
X626110Y100330D02*
D03*
X782320D02*
D03*
D76*
X1327150Y574040D02*
D03*
D77*
X1301750D02*
D03*
X1276350D02*
D03*
D78*
X1315720Y694690D02*
D03*
D79*
X1290320D02*
D03*
X1264920D02*
D03*
D80*
X851300Y26670D02*
D03*
D81*
X749700Y147320D02*
D03*
X774700D02*
D03*
D82*
X799700D02*
D03*
D83*
X683610Y191840D02*
D03*
Y217840D02*
D03*
D84*
Y243840D02*
D03*
D85*
X582930Y135420D02*
D03*
D86*
Y235420D02*
D03*
M02*
