G04*
G04 #@! TF.GenerationSoftware,Altium Limited,Altium Designer,24.6.1 (21)*
G04*
G04 Layer_Physical_Order=4*
G04 Layer_Color=16711680*
%FSLAX44Y44*%
%MOMM*%
G71*
G04*
G04 #@! TF.SameCoordinates,44A1DD27-CD51-42AF-A16C-F6F8CAE25C75*
G04*
G04*
G04 #@! TF.FilePolarity,Positive*
G04*
G01*
G75*
%ADD12C,0.2540*%
%ADD60C,1.5500*%
%ADD61R,1.5500X1.5500*%
%ADD63R,1.4500X1.4500*%
%ADD64C,1.4500*%
%ADD68R,1.5500X1.5500*%
%ADD69C,1.1000*%
%ADD70R,1.1000X1.1000*%
%ADD71C,1.2000*%
%ADD72R,1.2000X1.2000*%
%ADD73C,1.5700*%
%ADD74R,1.5700X1.5700*%
%ADD78R,1.2700X1.2700*%
%ADD79C,1.2700*%
%ADD80R,1.2000X1.2000*%
%ADD81C,1.4000*%
%ADD82R,1.4000X1.4000*%
%ADD83C,1.3208*%
%ADD84R,1.3208X1.3208*%
%ADD85C,1.3000*%
%ADD86R,1.3000X1.3000*%
%ADD87C,1.5300*%
%ADD88R,1.5300X1.5300*%
%ADD89C,5.9944*%
%ADD90C,1.6500*%
%ADD91R,2.1000X1.5000*%
%ADD92R,1.5000X2.1000*%
%ADD93R,1.6000X1.6000*%
%ADD94C,1.6000*%
%ADD95C,0.5000*%
%ADD96R,1.5000X1.5000*%
%ADD97C,1.5000*%
%ADD98R,1.5000X1.5000*%
%ADD99R,1.7000X1.7000*%
%ADD100C,1.7000*%
D12*
X1330990Y179403D02*
Y319714D01*
X1313660Y309890D02*
Y329860D01*
X1288670Y354850D02*
X1313660Y329860D01*
X1288670Y354850D02*
Y467932D01*
X1247140Y509462D02*
X1288670Y467932D01*
X1247140Y509462D02*
Y845820D01*
X1299350Y351354D02*
Y446988D01*
Y351354D02*
X1330990Y319714D01*
X1299350Y446988D02*
X1314060Y461698D01*
Y614715D01*
X1344560Y383540D02*
Y591400D01*
X1280160Y655800D02*
X1344560Y591400D01*
X1272540Y701438D02*
X1280160Y693818D01*
Y655800D02*
Y693818D01*
X1272540Y701438D02*
Y845820D01*
X448430Y272930D02*
Y291705D01*
X456445Y299720D02*
X463035D01*
X471050Y307735D01*
Y472045D01*
X448430Y272930D02*
X459740Y261620D01*
X433705Y509390D02*
X471050Y472045D01*
X448430Y291705D02*
X456445Y299720D01*
X433705Y509390D02*
Y518795D01*
X431800Y520700D02*
X433705Y518795D01*
X459740Y261620D02*
X473830Y247530D01*
X589208D01*
X603358Y233380D02*
X653737D01*
X589208Y247530D02*
X603358Y233380D01*
X653737D02*
X664197Y243840D01*
X683610D01*
X763890Y146222D02*
Y174610D01*
X789940Y200660D01*
X706120Y100330D02*
X728568Y122778D01*
X740446D01*
X763890Y146222D01*
X683610Y243840D02*
X706627Y220823D01*
X760725D01*
X778409Y203140D01*
X787460D01*
X789940Y200660D01*
X791210Y201930D02*
Y271780D01*
X789940Y200660D02*
X791210Y201930D01*
Y271780D02*
X792480Y273050D01*
X820988Y200660D02*
X845118Y224790D01*
X861060D01*
X789940Y200660D02*
X820988D01*
X902288Y266018D02*
X951656D01*
X992414Y306775D01*
Y315572D01*
X1019919Y343077D02*
X1030902D01*
X1079620Y391795D01*
X861060Y224790D02*
X902288Y266018D01*
X1079620Y391795D02*
X1089025D01*
X992414Y315572D02*
X1019919Y343077D01*
X1089025Y391795D02*
X1090930Y393700D01*
X1162050Y464820D02*
X1275080D01*
X1090930Y393700D02*
X1162050Y464820D01*
X1327912Y48768D02*
X1344930Y31750D01*
X1309347Y48768D02*
X1327912D01*
X1289558Y68557D02*
X1309347Y48768D01*
X1289558Y137971D02*
X1330990Y179403D01*
X1289558Y68557D02*
Y137971D01*
X1264920Y663855D02*
X1314060Y614715D01*
X1264920Y663855D02*
Y694690D01*
D60*
X1247140Y845820D02*
D03*
X398780Y566420D02*
D03*
Y591820D02*
D03*
Y436880D02*
D03*
X960120Y290830D02*
D03*
X934720D02*
D03*
X768350Y345440D02*
D03*
X793750D02*
D03*
X767080Y273050D02*
D03*
X792480D02*
D03*
X789940Y200660D02*
D03*
X764540D02*
D03*
X793750Y386080D02*
D03*
X768350D02*
D03*
X831850Y308610D02*
D03*
Y283210D02*
D03*
Y257810D02*
D03*
X1049020Y228600D02*
D03*
X1023620D02*
D03*
X1217930Y229870D02*
D03*
X398780Y123190D02*
D03*
Y148590D02*
D03*
Y173990D02*
D03*
X889000Y196850D02*
D03*
X1172210Y229870D02*
D03*
X1146810D02*
D03*
X1121410D02*
D03*
X398780Y502920D02*
D03*
Y477520D02*
D03*
X934720Y229870D02*
D03*
X909320D02*
D03*
X1150620Y265430D02*
D03*
X1176020D02*
D03*
D61*
X398780Y617220D02*
D03*
Y411480D02*
D03*
X831850Y232410D02*
D03*
X398780Y97790D02*
D03*
Y528320D02*
D03*
D63*
X688350Y353660D02*
D03*
X644240Y192440D02*
D03*
X600720Y353660D02*
D03*
D64*
X688350Y327660D02*
D03*
Y301660D02*
D03*
X644240Y218440D02*
D03*
Y244440D02*
D03*
X600720Y301660D02*
D03*
Y327660D02*
D03*
D68*
X1272540Y845820D02*
D03*
X909320Y290830D02*
D03*
X742950Y345440D02*
D03*
X741680Y273050D02*
D03*
X739140Y200660D02*
D03*
X742950Y386080D02*
D03*
X998220Y228600D02*
D03*
X1243330Y229870D02*
D03*
X863600Y196850D02*
D03*
X1096010Y229870D02*
D03*
X960120D02*
D03*
X1125220Y265430D02*
D03*
D69*
X1018540Y259080D02*
D03*
X846890Y345440D02*
D03*
Y386080D02*
D03*
X735330Y231140D02*
D03*
X734260Y303530D02*
D03*
D70*
X993540Y259080D02*
D03*
X821890Y345440D02*
D03*
Y386080D02*
D03*
X760330Y231140D02*
D03*
X759260Y303530D02*
D03*
D71*
X819150Y87230D02*
D03*
X901300Y26670D02*
D03*
D72*
X819150Y37230D02*
D03*
D73*
X887730Y67310D02*
D03*
Y92710D02*
D03*
Y118110D02*
D03*
X862330Y67310D02*
D03*
Y92710D02*
D03*
D74*
Y118110D02*
D03*
D78*
X1315720Y694690D02*
D03*
D79*
X1290320D02*
D03*
X1264920D02*
D03*
D80*
X851300Y26670D02*
D03*
D81*
X749700Y147320D02*
D03*
X774700D02*
D03*
D82*
X799700D02*
D03*
D83*
X683610Y191840D02*
D03*
Y217840D02*
D03*
D84*
Y243840D02*
D03*
D85*
X582930Y135420D02*
D03*
D86*
Y235420D02*
D03*
D87*
X989330Y31750D02*
D03*
Y184150D02*
D03*
X1014730Y31750D02*
D03*
Y184150D02*
D03*
X1040130Y31750D02*
D03*
Y184150D02*
D03*
X1065530Y31750D02*
D03*
Y184150D02*
D03*
X1090930Y31750D02*
D03*
Y184150D02*
D03*
X1116330Y31750D02*
D03*
Y184150D02*
D03*
X1141730Y31750D02*
D03*
Y184150D02*
D03*
X1167130Y31750D02*
D03*
Y184150D02*
D03*
X1192530Y31750D02*
D03*
Y184150D02*
D03*
X1217930Y31750D02*
D03*
Y184150D02*
D03*
X1243330Y31750D02*
D03*
Y184150D02*
D03*
X1268730Y31750D02*
D03*
Y184150D02*
D03*
X1294130Y31750D02*
D03*
Y184150D02*
D03*
X1319530Y31750D02*
D03*
Y184150D02*
D03*
D88*
X1344930Y31750D02*
D03*
Y184150D02*
D03*
D89*
X1323340Y82550D02*
D03*
Y833120D02*
D03*
X407670D02*
D03*
Y40640D02*
D03*
D90*
X1344560Y383540D02*
D03*
X1266560D02*
D03*
X1344560Y345440D02*
D03*
X1266560D02*
D03*
X1344560Y645160D02*
D03*
X1266560D02*
D03*
D91*
X1313660Y309890D02*
D03*
D92*
X1343660Y262890D02*
D03*
X1283660D02*
D03*
D93*
X1325880Y464820D02*
D03*
D94*
X1300480D02*
D03*
X1275080D02*
D03*
D95*
X576580Y375920D02*
D03*
X607060Y266700D02*
D03*
X861060Y283210D02*
D03*
Y224790D02*
D03*
D96*
X508000Y444500D02*
D03*
X535940Y185420D02*
D03*
D97*
X508000Y469900D02*
D03*
Y495300D02*
D03*
Y520700D02*
D03*
Y546100D02*
D03*
Y571500D02*
D03*
Y596900D02*
D03*
X431800Y444500D02*
D03*
Y469900D02*
D03*
Y495300D02*
D03*
Y520700D02*
D03*
Y546100D02*
D03*
Y571500D02*
D03*
Y596900D02*
D03*
X1167130Y393700D02*
D03*
X1141730D02*
D03*
X1116330D02*
D03*
X1090930D02*
D03*
X1065530D02*
D03*
X1040130D02*
D03*
X1014730D02*
D03*
X1167130Y317500D02*
D03*
X1141730D02*
D03*
X1116330D02*
D03*
X1090930D02*
D03*
X1065530D02*
D03*
X1040130D02*
D03*
X473710Y24130D02*
D03*
X499110D02*
D03*
X524510D02*
D03*
X549910D02*
D03*
X575310D02*
D03*
X600710D02*
D03*
X626110D02*
D03*
X499110Y100330D02*
D03*
X524510D02*
D03*
X549910D02*
D03*
X575310D02*
D03*
X600710D02*
D03*
X473710D02*
D03*
X756920D02*
D03*
X731520D02*
D03*
X706120D02*
D03*
X782320Y24130D02*
D03*
X756920D02*
D03*
X731520D02*
D03*
X706120D02*
D03*
X459740Y337820D02*
D03*
Y312420D02*
D03*
Y287020D02*
D03*
Y261620D02*
D03*
Y236220D02*
D03*
Y210820D02*
D03*
Y185420D02*
D03*
X535940Y337820D02*
D03*
Y312420D02*
D03*
Y287020D02*
D03*
Y261620D02*
D03*
Y236220D02*
D03*
Y210820D02*
D03*
D98*
X1014730Y317500D02*
D03*
X626110Y100330D02*
D03*
X782320D02*
D03*
D99*
X1327150Y574040D02*
D03*
D100*
X1301750D02*
D03*
X1276350D02*
D03*
M02*
