G04*
G04 #@! TF.GenerationSoftware,Altium Limited,Altium Designer,24.6.1 (21)*
G04*
G04 Layer_Color=32768*
%FSLAX44Y44*%
%MOMM*%
G71*
G04*
G04 #@! TF.SameCoordinates,44A1DD27-CD51-42AF-A16C-F6F8CAE25C75*
G04*
G04*
G04 #@! TF.FilePolarity,Positive*
G04*
G01*
G75*
%ADD12C,0.2540*%
%ADD13C,0.2000*%
%ADD134C,0.1000*%
%ADD136C,0.0500*%
G36*
X665195Y182696D02*
Y252984D01*
X718754D01*
Y182696D01*
X665195D01*
D02*
G37*
G36*
X1236980Y718185D02*
X1343660D01*
Y671195D01*
X1236980D01*
Y718185D01*
D02*
G37*
D12*
X913180Y12750D02*
Y203150D01*
Y12750D02*
X1421080D01*
Y203150D01*
X913180D02*
X1421080D01*
X891120Y139940D02*
Y169940D01*
X902120D01*
Y139940D02*
Y169940D01*
X891120Y139940D02*
X902120D01*
X1002740Y417010D02*
Y632010D01*
X805740Y417010D02*
X1002740D01*
X805740D02*
Y632010D01*
X1002740D01*
X949601Y394661D02*
X978259D01*
Y380039D02*
Y394661D01*
X949601Y380039D02*
X978259D01*
X949601D02*
Y394661D01*
X1205140Y370725D02*
X1225640D01*
X1205140Y320143D02*
Y370725D01*
Y320143D02*
X1225640D01*
Y370725D01*
X1353810Y369040D02*
Y398040D01*
X1257310D02*
X1353810D01*
X1305560Y378540D02*
Y388540D01*
X1300560Y383540D02*
X1310560D01*
X1257310Y369040D02*
Y398040D01*
Y369040D02*
X1353810D01*
X1308660Y262890D02*
X1318660D01*
X1313660Y257890D02*
Y267890D01*
X1275160Y216890D02*
Y318390D01*
X1421660D01*
X1275160Y216890D02*
X1421660D01*
Y318390D01*
X1305560Y340440D02*
Y350440D01*
X1257310Y330940D02*
X1353810D01*
X1257310D02*
Y359940D01*
X1353810D01*
Y330940D02*
Y359940D01*
X1300560Y345440D02*
X1310560D01*
X1300480Y459820D02*
Y469820D01*
X1295480Y464820D02*
X1305480D01*
X1245980Y435320D02*
X1354980D01*
X1245980Y484320D02*
X1354980D01*
Y435320D02*
Y484320D01*
X1245980Y435320D02*
Y484320D01*
X412480Y552720D02*
Y630920D01*
X385080Y552720D02*
X412480D01*
X385080D02*
Y630920D01*
X412480D01*
X1123390Y645610D02*
Y860610D01*
X926390Y645610D02*
X1123390D01*
X926390D02*
Y860610D01*
X1123390D01*
X1241500Y417010D02*
Y632010D01*
X1044500Y417010D02*
X1241500D01*
X1044500D02*
Y632010D01*
X1241500D01*
X383900Y641470D02*
Y656470D01*
X413900Y641470D02*
Y656470D01*
X383900D02*
X413900D01*
X383900Y641470D02*
X413900D01*
X394100Y648970D02*
X403700D01*
X398900Y644170D02*
Y653770D01*
X631790Y331650D02*
Y354150D01*
X643290D01*
Y331650D02*
Y354150D01*
X631790Y331650D02*
X643290D01*
X653380Y332050D02*
Y354550D01*
X664880D01*
Y332050D02*
Y354550D01*
X653380Y332050D02*
X664880D01*
X670200Y293410D02*
Y361910D01*
Y293410D02*
X714100D01*
Y361910D01*
X670200D02*
X714100D01*
X452479Y395279D02*
Y409901D01*
X423821Y395279D02*
X452479D01*
X423821D02*
Y409901D01*
X452479D01*
X383830Y453730D02*
X413730D01*
Y394630D02*
Y453730D01*
X383830Y394630D02*
X413730D01*
X383830D02*
Y453730D01*
X524860Y566870D02*
Y591370D01*
X536860D01*
Y566870D02*
Y591370D01*
X524860Y566870D02*
X536860D01*
X618490Y184190D02*
X662390D01*
X618490D02*
Y252690D01*
X662390D01*
Y184190D02*
Y252690D01*
X940499Y250569D02*
X974661D01*
X940499D02*
Y270131D01*
X974661D01*
Y250569D02*
Y270131D01*
X973820Y277130D02*
Y304530D01*
X895620Y277130D02*
X973820D01*
X895620D02*
Y304530D01*
X973820D01*
X987040Y269080D02*
X1025040D01*
Y249080D02*
Y269080D01*
X987040Y249080D02*
X1025040D01*
X987040D02*
Y269080D01*
X729250Y331740D02*
Y359140D01*
Y331740D02*
X807450D01*
Y359140D01*
X729250D02*
X807450D01*
X805650Y30230D02*
Y94230D01*
X832650D01*
Y30230D02*
Y94230D01*
X805650Y30230D02*
X832650D01*
X902080Y50410D02*
Y135010D01*
X847980Y50410D02*
X902080D01*
X847980D02*
Y135010D01*
X902080D01*
X658910Y26070D02*
X681410D01*
Y14570D02*
Y26070D01*
X658910Y14570D02*
X681410D01*
X658910D02*
Y26070D01*
X914509Y370930D02*
X965091D01*
Y350430D02*
Y370930D01*
X914509Y350430D02*
X965091D01*
X914509D02*
Y370930D01*
Y314870D02*
X965091D01*
X914509D02*
Y335370D01*
X965091D01*
Y314870D02*
Y335370D01*
X989930Y307100D02*
X1191930D01*
X989930Y404100D02*
X1191930D01*
X989930Y307100D02*
Y404100D01*
X1191930Y307100D02*
Y404100D01*
X1090930Y350600D02*
Y360600D01*
X1085930Y355600D02*
X1095930D01*
X1198983Y383450D02*
Y403950D01*
X1249565D01*
Y383450D02*
Y403950D01*
X1198983Y383450D02*
X1249565D01*
X1154360Y285080D02*
X1177360D01*
X1154360D02*
Y296580D01*
X1177360D01*
Y285080D02*
Y296580D01*
X1097950Y270690D02*
Y293190D01*
X1086450Y270690D02*
X1097950D01*
X1086450D02*
Y293190D01*
X1097950D01*
X1076360Y270440D02*
Y293440D01*
X1064860Y270440D02*
X1076360D01*
X1064860D02*
Y293440D01*
X1076360D01*
X999599Y281850D02*
X1050181D01*
X999599D02*
Y302350D01*
X1050181D01*
Y281850D02*
Y302350D01*
X1233770Y318700D02*
Y341700D01*
X1245270D01*
Y318700D02*
Y341700D01*
X1233770Y318700D02*
X1245270D01*
X1205609Y267399D02*
Y301561D01*
X1225171D01*
Y267399D02*
Y301561D01*
X1205609Y267399D02*
X1225171D01*
X1237560Y300390D02*
X1260060D01*
Y288890D02*
Y300390D01*
X1237560Y288890D02*
X1260060D01*
X1237560D02*
Y300390D01*
X639520Y646880D02*
Y861880D01*
X442520Y646880D02*
X639520D01*
X442520D02*
Y861880D01*
X639520D01*
X758900Y416820D02*
Y631820D01*
X561900Y416820D02*
X758900D01*
X561900D02*
Y631820D01*
X758900D01*
X1296750Y574040D02*
X1306750D01*
X1301750Y569040D02*
Y579040D01*
X1343660Y671195D02*
Y718185D01*
X1236980Y671195D02*
X1343660D01*
X1236980D02*
Y718185D01*
X1343660D01*
X1353810Y630660D02*
Y659660D01*
X1257310D02*
X1353810D01*
X1305560Y640160D02*
Y650160D01*
X1300560Y645160D02*
X1310560D01*
X1257310Y630660D02*
Y659660D01*
Y630660D02*
X1353810D01*
X1346771Y404239D02*
Y423801D01*
X1312609D02*
X1346771D01*
X1312609Y404239D02*
Y423801D01*
Y404239D02*
X1346771D01*
X1318521Y598549D02*
X1352683D01*
X1318521D02*
Y618111D01*
X1352683D01*
Y598549D02*
Y618111D01*
X1269867Y618111D02*
X1304029D01*
Y598549D02*
Y618111D01*
X1269867Y598549D02*
X1304029D01*
X1269867D02*
Y618111D01*
X1263517Y404239D02*
Y423801D01*
Y404239D02*
X1297679D01*
Y423801D01*
X1263517D02*
X1297679D01*
X682550Y861880D02*
X879550D01*
X682550Y646880D02*
Y861880D01*
Y646880D02*
X879550D01*
Y861880D01*
X426050Y108020D02*
X437550D01*
X426050Y85020D02*
Y108020D01*
Y85020D02*
X437550D01*
Y108020D01*
X475580Y146120D02*
X487080D01*
X475580Y123120D02*
Y146120D01*
Y123120D02*
X487080D01*
Y146120D01*
X528059Y124839D02*
Y144401D01*
X493897D02*
X528059D01*
X493897Y124839D02*
Y144401D01*
Y124839D02*
X528059D01*
X425499Y122079D02*
Y147161D01*
Y122079D02*
X468581D01*
Y147161D01*
X425499D02*
X468581D01*
X844300Y13170D02*
Y40170D01*
Y13170D02*
X908300D01*
Y40170D01*
X844300D02*
X908300D01*
X848669Y144421D02*
X863291D01*
Y173079D01*
X848669D02*
X863291D01*
X848669Y144421D02*
Y173079D01*
X871570Y146480D02*
X883570D01*
X871570Y168480D02*
X883570D01*
X871570Y146480D02*
Y168480D01*
X883570Y146480D02*
Y168480D01*
X877570Y152480D02*
Y162480D01*
X872570Y157480D02*
X882570D01*
X727980Y286750D02*
X806180D01*
Y259350D02*
Y286750D01*
X727980Y259350D02*
X806180D01*
X727980D02*
Y286750D01*
X725440Y214360D02*
X803640D01*
Y186960D02*
Y214360D01*
X725440Y186960D02*
X803640D01*
X725440D02*
Y214360D01*
X729250Y399780D02*
X807450D01*
Y372380D02*
Y399780D01*
X729250Y372380D02*
X807450D01*
X729250D02*
Y399780D01*
X816900Y325460D02*
X846800D01*
Y215560D02*
Y325460D01*
X816900Y215560D02*
X846800D01*
X816900D02*
Y325460D01*
X984520Y242300D02*
X1062720D01*
Y214900D02*
Y242300D01*
X984520Y214900D02*
X1062720D01*
X984520D02*
Y242300D01*
X1201080Y214920D02*
Y244820D01*
X1260180D01*
Y214920D02*
Y244820D01*
X1201080Y214920D02*
X1260180D01*
X815390Y355440D02*
X853390D01*
Y335440D02*
Y355440D01*
X815390Y335440D02*
X853390D01*
X815390D02*
Y355440D01*
Y376080D02*
Y396080D01*
Y376080D02*
X853390D01*
Y396080D01*
X815390D02*
X853390D01*
X728830Y221140D02*
X766830D01*
X728830D02*
Y241140D01*
X766830D01*
Y221140D02*
Y241140D01*
X727760Y293530D02*
X765760D01*
X727760D02*
Y313530D01*
X765760D01*
Y293530D02*
Y313530D01*
X782250Y295240D02*
X805250D01*
X782250D02*
Y306740D01*
X805250D01*
Y295240D02*
Y306740D01*
X780149Y223100D02*
X802271D01*
X780149D02*
Y234100D01*
X802271D01*
Y223100D02*
Y234100D01*
X863160Y391830D02*
X886160D01*
Y380330D02*
Y391830D01*
X863160Y380330D02*
X886160D01*
X863160D02*
Y391830D01*
X485060Y367380D02*
Y379380D01*
X463060Y367380D02*
Y379380D01*
Y367380D02*
X485060D01*
X463060Y379380D02*
X485060D01*
X469060Y373380D02*
X479060D01*
X474060Y368380D02*
Y378380D01*
X384969Y311548D02*
Y354630D01*
X410051D01*
Y311548D02*
Y354630D01*
X384969Y311548D02*
X410051D01*
X567090Y332670D02*
Y355670D01*
X555590Y332670D02*
X567090D01*
X555590D02*
Y355670D01*
X567090D01*
X556340Y307340D02*
X566340D01*
X561340Y302340D02*
Y312340D01*
X568840Y293840D02*
Y320840D01*
X553840Y293840D02*
Y320840D01*
X568840D01*
X553840Y293840D02*
X568840D01*
X536540Y123120D02*
Y146120D01*
X548040D01*
Y123120D02*
Y146120D01*
X536540Y123120D02*
X548040D01*
X555689Y276481D02*
X589851D01*
Y256919D02*
Y276481D01*
X555689Y256919D02*
X589851D01*
X555689D02*
Y276481D01*
X651600Y124569D02*
Y175151D01*
X631100Y124569D02*
X651600D01*
X631100D02*
Y175151D01*
X651600D01*
X391760Y364420D02*
X403260D01*
Y387420D01*
X391760D02*
X403260D01*
X391760Y364420D02*
Y387420D01*
X626062Y263740D02*
Y274740D01*
X648184D01*
Y263740D02*
Y274740D01*
X626062Y263740D02*
X648184D01*
X484960Y394300D02*
Y405800D01*
X462460D02*
X484960D01*
X462460Y394300D02*
Y405800D01*
Y394300D02*
X484960D01*
X631790Y316300D02*
X643290D01*
X631790Y293300D02*
Y316300D01*
Y293300D02*
X643290D01*
Y316300D01*
X855310Y302190D02*
X866810D01*
Y325190D01*
X855310D02*
X866810D01*
X855310Y302190D02*
Y325190D01*
X653380Y293670D02*
X664880D01*
Y316670D01*
X653380D02*
X664880D01*
X653380Y293670D02*
Y316670D01*
X1032070Y254600D02*
Y266100D01*
Y254600D02*
X1055070D01*
Y266100D01*
X1032070D02*
X1055070D01*
X863530Y351190D02*
X886530D01*
Y339690D02*
Y351190D01*
X863530Y339690D02*
X886530D01*
X863530D02*
Y351190D01*
X855310Y238690D02*
X866810D01*
Y261690D01*
X855310D02*
X866810D01*
X855310Y238690D02*
Y261690D01*
X448910Y110730D02*
X650910D01*
X448910Y13730D02*
X650910D01*
Y110730D01*
X448910Y13730D02*
Y110730D01*
X549910Y57230D02*
Y67230D01*
X544910Y62230D02*
X554910D01*
X917737Y401990D02*
X939395D01*
Y390490D02*
Y401990D01*
X917737Y390490D02*
X939395D01*
X917737D02*
Y401990D01*
X505460Y395050D02*
Y405050D01*
X500460Y400050D02*
X510460D01*
X491960Y392550D02*
X518960D01*
X491960Y407550D02*
X518960D01*
Y392550D02*
Y407550D01*
X491960Y392550D02*
Y407550D01*
X383830Y80940D02*
Y190840D01*
Y80940D02*
X413730D01*
Y190840D01*
X383830D02*
X413730D01*
X582570Y361910D02*
X626470D01*
Y293410D02*
Y361910D01*
X582570Y293410D02*
X626470D01*
X582570D02*
Y361910D01*
X683101Y41610D02*
Y84692D01*
X658019Y41610D02*
X683101D01*
X658019D02*
Y84692D01*
X683101D01*
X612740Y138360D02*
Y161360D01*
X624240D01*
Y138360D02*
Y161360D01*
X612740Y138360D02*
X624240D01*
X739220Y62230D02*
X749220D01*
X744220Y57230D02*
Y67230D01*
X690720Y13730D02*
Y110730D01*
X797720Y13730D02*
Y110730D01*
X690720Y13730D02*
X797720D01*
X690720Y110730D02*
X797720D01*
X657969Y135980D02*
X708551D01*
Y115480D02*
Y135980D01*
X657969Y115480D02*
X708551D01*
X657969D02*
Y135980D01*
X497840Y256620D02*
Y266620D01*
X492840Y261620D02*
X502840D01*
X449340Y362620D02*
X546340D01*
X449340Y160620D02*
X546340D01*
X449340D02*
Y362620D01*
X546340Y160620D02*
Y362620D01*
X387260Y250299D02*
Y300881D01*
X407760D01*
Y250299D02*
Y300881D01*
X387260Y250299D02*
X407760D01*
X440311Y175521D02*
Y209683D01*
X420749Y175521D02*
X440311D01*
X420749D02*
Y209683D01*
X440311D01*
X393749Y216059D02*
X436831D01*
X393749D02*
Y241141D01*
X436831D01*
Y216059D02*
Y241141D01*
X423511Y156810D02*
X445169D01*
X423511D02*
Y168310D01*
X445169D01*
Y156810D02*
Y168310D01*
X724800Y173120D02*
X824600D01*
Y121520D02*
Y173120D01*
X724800Y121520D02*
X824600D01*
X724800D02*
Y173120D01*
X420280Y251575D02*
Y302157D01*
X440780D01*
Y251575D02*
Y302157D01*
X420280Y251575D02*
X440780D01*
X665195Y182696D02*
Y252984D01*
Y182696D02*
X718754D01*
Y252984D01*
X665195D02*
X718754D01*
X1189060Y214920D02*
Y244820D01*
X1079160Y214920D02*
X1189060D01*
X1079160D02*
Y244820D01*
X1189060D01*
X846750Y211800D02*
X905850D01*
X846750Y181900D02*
Y211800D01*
Y181900D02*
X905850D01*
Y211800D01*
X673701Y153000D02*
Y164500D01*
Y153000D02*
X695359D01*
Y164500D01*
X673701D02*
X695359D01*
X385080Y542020D02*
X412480D01*
X385080Y463820D02*
Y542020D01*
Y463820D02*
X412480D01*
Y542020D01*
X555430Y246420D02*
X610430D01*
X555430Y124420D02*
Y246420D01*
Y124420D02*
X610430D01*
Y246420D01*
X895620Y243570D02*
X973820D01*
X895620Y216170D02*
Y243570D01*
Y216170D02*
X973820D01*
X588460Y369920D02*
Y381920D01*
Y369920D02*
X612960D01*
Y381920D01*
X588460D02*
X612960D01*
X1111520Y251730D02*
Y279130D01*
Y251730D02*
X1189720D01*
Y279130D01*
X1111520D02*
X1189720D01*
X973820Y216170D02*
Y243570D01*
X424780Y333830D02*
X436280D01*
X424780Y311330D02*
Y333830D01*
Y311330D02*
X436280D01*
Y333830D01*
X424780Y370660D02*
X436280D01*
X424780Y348160D02*
Y370660D01*
Y348160D02*
X436280D01*
Y370660D01*
D13*
X1237349Y254850D02*
Y265850D01*
Y254850D02*
X1259471D01*
Y265850D01*
X1237349D02*
X1259471D01*
D134*
X464900Y520700D02*
X474900D01*
X469900Y515700D02*
Y525700D01*
D136*
X1230290Y830870D02*
X1289390D01*
Y860770D01*
X1230290D02*
X1289390D01*
X1230290Y830870D02*
Y860770D01*
X1195150Y688560D02*
X1205150D01*
X1200150Y683560D02*
Y693560D01*
X1224650Y655560D02*
Y721560D01*
X1175650Y655560D02*
X1224650D01*
X1175650D02*
Y721560D01*
X1224650D01*
X518400Y419700D02*
Y621700D01*
X421400Y419700D02*
Y621700D01*
Y419700D02*
X518400D01*
X421400Y621700D02*
X518400D01*
M02*
