G04*
G04 #@! TF.GenerationSoftware,Altium Limited,Altium Designer,24.6.1 (21)*
G04*
G04 Layer_Color=16711935*
%FSLAX44Y44*%
%MOMM*%
G71*
G04*
G04 #@! TF.SameCoordinates,44A1DD27-CD51-42AF-A16C-F6F8CAE25C75*
G04*
G04*
G04 #@! TF.FilePolarity,Positive*
G04*
G01*
G75*
%ADD10C,0.4000*%
%ADD12C,0.2540*%
%ADD13C,0.2000*%
%ADD15C,0.1524*%
%ADD134C,0.1000*%
%ADD135C,0.0000*%
D10*
X1346930Y209550D02*
G03*
X1346930Y209550I-2000J0D01*
G01*
D12*
X915680Y15250D02*
Y200650D01*
Y15250D02*
X1418580D01*
Y200650D01*
X915680D02*
X1418580D01*
X892120Y146690D02*
Y163190D01*
X901120D01*
Y146690D02*
Y163190D01*
X892120Y146690D02*
X901120D01*
X1000240Y428510D02*
Y620510D01*
X808240Y428510D02*
X1000240D01*
X808240D02*
Y620510D01*
X1000240D01*
X956180Y391600D02*
X971680D01*
Y383100D02*
Y391600D01*
X956180Y383100D02*
X971680D01*
X956180D02*
Y391600D01*
X1207640Y358684D02*
X1223140D01*
X1207640Y332184D02*
Y358684D01*
Y332184D02*
X1223140D01*
Y358684D01*
X1282059Y371795D02*
X1329059D01*
Y395283D01*
X1282059D02*
X1329059D01*
X1282059Y371795D02*
Y395283D01*
X1276663Y217893D02*
Y311892D01*
Y217893D02*
X1420663D01*
Y311892D01*
X1276663D02*
X1420663D01*
X1329061Y333697D02*
Y357185D01*
X1282061Y333697D02*
X1329061D01*
X1282061D02*
Y357185D01*
X1329061D01*
X1246980Y449320D02*
X1353980D01*
X1246980Y436320D02*
Y483320D01*
X1353980Y436320D02*
Y483320D01*
X1246980D02*
X1353980D01*
X1246980Y436320D02*
X1353980D01*
X411480Y553720D02*
Y629920D01*
X386080Y553720D02*
X411480D01*
X386080D02*
Y629920D01*
X411480D01*
X928890Y657110D02*
Y849110D01*
X1120890D01*
Y657110D02*
Y849110D01*
X928890Y657110D02*
X1120890D01*
X1239000Y428510D02*
Y620510D01*
X1047000Y428510D02*
X1239000D01*
X1047000D02*
Y620510D01*
X1239000D01*
X390150Y644170D02*
Y653770D01*
X407650Y644170D02*
Y653770D01*
X390150D02*
X407650D01*
X390150Y644170D02*
X407650D01*
X632790Y334900D02*
Y350900D01*
X642290D01*
Y334900D02*
Y350900D01*
X632790Y334900D02*
X642290D01*
X654380Y335300D02*
Y351300D01*
X663880D01*
Y335300D02*
Y351300D01*
X654380Y335300D02*
X663880D01*
X671200Y301660D02*
Y353660D01*
Y301660D02*
X713100D01*
Y353660D01*
X671200D02*
X713100D01*
X430400Y398340D02*
X445900D01*
X430400D02*
Y406840D01*
X445900D01*
Y398340D02*
Y406840D01*
X386080Y451480D02*
X411480D01*
Y396880D02*
Y451480D01*
X386080Y396880D02*
X411480D01*
X386080D02*
Y451480D01*
X526110Y570870D02*
Y587370D01*
X535610D01*
Y570870D02*
Y587370D01*
X526110Y570870D02*
X535610D01*
X619490Y192440D02*
X661390D01*
X619490D02*
Y244440D01*
X661390D01*
Y192440D02*
Y244440D01*
X947530Y254100D02*
X967630D01*
X947530D02*
Y266600D01*
X967630D01*
Y254100D02*
Y266600D01*
X896620Y303530D02*
X972820D01*
Y278130D02*
Y303530D01*
X896620Y278130D02*
X972820D01*
X896620D02*
Y303530D01*
X991040Y268080D02*
X1021040D01*
Y250080D02*
Y268080D01*
X991040Y250080D02*
X1021040D01*
X991040D02*
Y268080D01*
X730250Y332740D02*
Y358140D01*
Y332740D02*
X806450D01*
Y358140D01*
X730250D02*
X806450D01*
X806650Y42230D02*
Y82230D01*
X831650D01*
Y42230D02*
Y82230D01*
X806650Y42230D02*
X831650D01*
X901080Y51410D02*
Y134010D01*
X848980Y51410D02*
X901080D01*
X848980D02*
Y134010D01*
X901080D01*
X662160Y25070D02*
X678160D01*
Y15570D02*
Y25070D01*
X662160Y15570D02*
X678160D01*
X662160D02*
Y25070D01*
X926550Y368430D02*
X953050D01*
Y352930D02*
Y368430D01*
X926550Y352930D02*
X953050D01*
X926550D02*
Y368430D01*
Y317370D02*
Y332870D01*
X953050D01*
Y317370D02*
Y332870D01*
X926550Y317370D02*
X953050D01*
X992430Y322600D02*
X1189430D01*
X992430Y388600D02*
X1189430D01*
X992430Y322600D02*
Y388600D01*
X1189430Y322600D02*
Y388600D01*
X1211024Y401450D02*
X1237524D01*
Y385950D02*
Y401450D01*
X1211024Y385950D02*
X1237524D01*
X1211024D02*
Y401450D01*
X1157360Y286080D02*
X1174360D01*
X1157360D02*
Y295580D01*
X1174360D01*
Y286080D02*
Y295580D01*
X1096950Y273940D02*
Y289940D01*
X1087450Y273940D02*
X1096950D01*
X1087450D02*
Y289940D01*
X1096950D01*
X1075360Y273440D02*
Y290440D01*
X1065860Y273440D02*
X1075360D01*
X1065860D02*
Y290440D01*
X1075360D01*
X1011640Y284350D02*
X1038140D01*
X1011640D02*
Y299850D01*
X1038140D01*
Y284350D02*
Y299850D01*
X1234770Y321700D02*
Y338700D01*
X1244270D01*
Y321700D02*
Y338700D01*
X1234770Y321700D02*
X1244270D01*
X1209140Y274430D02*
Y294530D01*
X1221640D01*
Y274430D02*
Y294530D01*
X1209140Y274430D02*
X1221640D01*
X1240810Y299390D02*
X1256810D01*
Y289890D02*
Y299390D01*
X1240810Y289890D02*
X1256810D01*
X1240810D02*
Y299390D01*
X637020Y658380D02*
Y850380D01*
X445020Y658380D02*
X637020D01*
X445020D02*
Y850380D01*
X637020D01*
X756400Y428320D02*
Y620320D01*
X564400Y428320D02*
X756400D01*
X564400D02*
Y620320D01*
X756400D01*
X1249750Y591540D02*
X1353750D01*
X1353750Y545540D02*
Y591540D01*
X1249750Y545540D02*
X1353750D01*
X1249750D02*
Y591540D01*
Y558540D02*
X1353750D01*
X1239520Y715645D02*
X1341120D01*
X1239520Y673735D02*
Y715645D01*
Y673735D02*
X1341120D01*
Y715645D01*
X1282059Y633415D02*
X1329059D01*
Y656903D01*
X1282059D02*
X1329059D01*
X1282059Y633415D02*
Y656903D01*
X1339740Y407770D02*
Y420270D01*
X1319640D02*
X1339740D01*
X1319640Y407770D02*
Y420270D01*
Y407770D02*
X1339740D01*
X1325552Y602080D02*
X1345652D01*
X1325552D02*
Y614580D01*
X1345652D01*
Y602080D02*
Y614580D01*
X1276898D02*
X1296998D01*
Y602080D02*
Y614580D01*
X1276898Y602080D02*
X1296998D01*
X1276898D02*
Y614580D01*
X1270548Y407770D02*
Y420270D01*
Y407770D02*
X1290648D01*
Y420270D01*
X1270548D02*
X1290648D01*
X685050Y850380D02*
X877050D01*
X685050Y658380D02*
Y850380D01*
Y658380D02*
X877050D01*
Y850380D01*
X427050Y105020D02*
X436550D01*
X427050Y88020D02*
Y105020D01*
Y88020D02*
X436550D01*
Y105020D01*
X476580Y143120D02*
X486080D01*
X476580Y126120D02*
Y143120D01*
Y126120D02*
X486080D01*
Y143120D01*
X521028Y128370D02*
Y140870D01*
X500928D02*
X521028D01*
X500928Y128370D02*
Y140870D01*
Y128370D02*
X521028D01*
X437040D02*
Y140870D01*
Y128370D02*
X457040D01*
Y140870D01*
X437040D02*
X457040D01*
X856300Y39170D02*
X896300D01*
X856300Y14170D02*
Y39170D01*
Y14170D02*
X896300D01*
Y39170D01*
X851730Y151000D02*
X860230D01*
Y166500D01*
X851730D02*
X860230D01*
X851730Y151000D02*
Y166500D01*
X872570Y148480D02*
X882570D01*
X872570Y166480D02*
X882570D01*
X872570Y148480D02*
Y166480D01*
X882570Y148480D02*
Y166480D01*
X728980Y285750D02*
X805180D01*
Y260350D02*
Y285750D01*
X728980Y260350D02*
X805180D01*
X728980D02*
Y285750D01*
X726440Y213360D02*
X802640D01*
Y187960D02*
Y213360D01*
X726440Y187960D02*
X802640D01*
X726440D02*
Y213360D01*
X730250Y398780D02*
X806450D01*
Y373380D02*
Y398780D01*
X730250Y373380D02*
X806450D01*
X730250D02*
Y398780D01*
X819150Y323210D02*
X844550D01*
Y217810D02*
Y323210D01*
X819150Y217810D02*
X844550D01*
X819150D02*
Y323210D01*
X985520Y241300D02*
X1061720D01*
Y215900D02*
Y241300D01*
X985520Y215900D02*
X1061720D01*
X985520D02*
Y241300D01*
X1203330Y217170D02*
Y242570D01*
X1257930D01*
Y217170D02*
Y242570D01*
X1203330Y217170D02*
X1257930D01*
X819390Y354440D02*
X849390D01*
Y336440D02*
Y354440D01*
X819390Y336440D02*
X849390D01*
X819390D02*
Y354440D01*
Y377080D02*
Y395080D01*
Y377080D02*
X849390D01*
Y395080D01*
X819390D02*
X849390D01*
X732830Y222140D02*
X762830D01*
X732830D02*
Y240140D01*
X762830D01*
Y222140D02*
Y240140D01*
X731760Y294530D02*
X761760D01*
X731760D02*
Y312530D01*
X761760D01*
Y294530D02*
Y312530D01*
X785250Y296240D02*
X802250D01*
X785250D02*
Y305740D01*
X802250D01*
Y296240D02*
Y305740D01*
X783210Y224600D02*
X799210D01*
X783210D02*
Y232600D01*
X799210D01*
Y224600D02*
Y232600D01*
X866160Y390830D02*
X883160D01*
Y381330D02*
Y390830D01*
X866160Y381330D02*
X883160D01*
X866160D02*
Y390830D01*
X483060Y368380D02*
Y378380D01*
X465060Y368380D02*
Y378380D01*
Y368380D02*
X483060D01*
X465060Y378380D02*
X483060D01*
X391260Y323089D02*
Y343089D01*
X403760D01*
Y323089D02*
Y343089D01*
X391260Y323089D02*
X403760D01*
X566090Y335670D02*
Y352670D01*
X556590Y335670D02*
X566090D01*
X556590D02*
Y352670D01*
X566090D01*
X566340Y298340D02*
Y316340D01*
X556340Y298340D02*
Y316340D01*
X566340D01*
X556340Y298340D02*
X566340D01*
X537540Y126120D02*
Y143120D01*
X547040D01*
Y126120D02*
Y143120D01*
X537540Y126120D02*
X547040D01*
X562720Y272950D02*
X582820D01*
Y260450D02*
Y272950D01*
X562720Y260450D02*
X582820D01*
X562720D02*
Y272950D01*
X649100Y136610D02*
Y163110D01*
X633600Y136610D02*
X649100D01*
X633600D02*
Y163110D01*
X649100D01*
X392760Y367420D02*
X402260D01*
Y384420D01*
X392760D02*
X402260D01*
X392760Y367420D02*
Y384420D01*
X629123Y265240D02*
X645123D01*
X629123D02*
Y273240D01*
X645123D01*
Y265240D02*
Y273240D01*
X481710Y395300D02*
Y404800D01*
X465710D02*
X481710D01*
X465710Y395300D02*
Y404800D01*
Y395300D02*
X481710D01*
X632790Y313300D02*
X642290D01*
X632790Y296300D02*
Y313300D01*
Y296300D02*
X642290D01*
Y313300D01*
X856310Y305190D02*
X865810D01*
Y322190D01*
X856310D02*
X865810D01*
X856310Y305190D02*
Y322190D01*
X654380Y296670D02*
X663880D01*
Y313670D01*
X654380D02*
X663880D01*
X654380Y296670D02*
Y313670D01*
X1035070Y255600D02*
Y265100D01*
Y255600D02*
X1052070D01*
Y265100D01*
X1035070D02*
X1052070D01*
X866530Y350190D02*
X883530D01*
Y340690D02*
Y350190D01*
X866530Y340690D02*
X883530D01*
X866530D02*
Y350190D01*
X856310Y241690D02*
X865810D01*
Y258690D01*
X856310D02*
X865810D01*
X856310Y241690D02*
Y258690D01*
X451410Y95230D02*
X648410D01*
X451410Y29230D02*
X648410D01*
Y95230D01*
X451410Y29230D02*
Y95230D01*
X920816Y400490D02*
X936316D01*
Y391990D02*
Y400490D01*
X920816Y391990D02*
X936316D01*
X920816D02*
Y400490D01*
X496460Y395050D02*
X514460D01*
X496460Y405050D02*
X514460D01*
Y395050D02*
Y405050D01*
X496460Y395050D02*
Y405050D01*
X386080Y83190D02*
Y188590D01*
Y83190D02*
X411480D01*
Y188590D01*
X386080D02*
X411480D01*
X583570Y353660D02*
X625470D01*
Y301660D02*
Y353660D01*
X583570Y301660D02*
X625470D01*
X583570D02*
Y353660D01*
X676810Y53151D02*
Y73151D01*
X664310Y53151D02*
X676810D01*
X664310D02*
Y73151D01*
X676810D01*
X623240Y141360D02*
Y158360D01*
X613740Y141360D02*
X623240D01*
X613740D02*
Y158360D01*
X623240D01*
X693470Y29230D02*
Y95230D01*
X794970Y29230D02*
Y95230D01*
X693470Y29230D02*
X794970D01*
X693470Y95230D02*
X794970D01*
X670010Y133480D02*
X696510D01*
Y117980D02*
Y133480D01*
X670010Y117980D02*
X696510D01*
X670010D02*
Y133480D01*
X464840Y360120D02*
X530840D01*
X464840Y163120D02*
X530840D01*
X464840D02*
Y360120D01*
X530840Y163120D02*
Y360120D01*
X389760Y262340D02*
Y288840D01*
X405260D01*
Y262340D02*
Y288840D01*
X389760Y262340D02*
X405260D01*
X436780Y182552D02*
Y202652D01*
X424280Y182552D02*
X436780D01*
X424280D02*
Y202652D01*
X436780D01*
X405290Y222350D02*
X425290D01*
X405290D02*
Y234850D01*
X425290D01*
Y222350D02*
Y234850D01*
X426590Y158310D02*
X442090D01*
X426590D02*
Y166810D01*
X442090D01*
Y158310D02*
Y166810D01*
X725800Y172120D02*
X823600D01*
Y122520D02*
Y172120D01*
X725800Y122520D02*
X823600D01*
X725800D02*
Y172120D01*
X422780Y263616D02*
Y290116D01*
X438280D01*
Y263616D02*
Y290116D01*
X422780Y263616D02*
X438280D01*
X667735Y197205D02*
Y238475D01*
X681070Y243840D02*
X686150D01*
X683610Y241300D02*
Y246380D01*
X386080Y541020D02*
X411480D01*
X386080Y464820D02*
Y541020D01*
Y464820D02*
X411480D01*
Y541020D01*
X1186810Y217170D02*
Y242570D01*
X1081410Y217170D02*
X1186810D01*
X1081410D02*
Y242570D01*
X1186810D01*
X849000Y209550D02*
X903600D01*
X849000Y184150D02*
Y209550D01*
Y184150D02*
X903600D01*
Y209550D01*
X556430Y245420D02*
X609430D01*
X556430Y125420D02*
Y245420D01*
Y125420D02*
X609430D01*
Y245420D01*
X425780Y330580D02*
X435280D01*
X425780Y314580D02*
Y330580D01*
Y314580D02*
X435280D01*
Y330580D01*
X425780Y367410D02*
X435280D01*
X425780Y351410D02*
Y367410D01*
Y351410D02*
X435280D01*
Y367410D01*
X676780Y154500D02*
Y163000D01*
Y154500D02*
X692280D01*
Y163000D01*
X676780D02*
X692280D01*
X1112520Y252730D02*
Y278130D01*
Y252730D02*
X1188720D01*
Y278130D01*
X1112520D02*
X1188720D01*
X972820Y217170D02*
Y242570D01*
X896620D02*
X972820D01*
X896620Y217170D02*
Y242570D01*
Y217170D02*
X972820D01*
X592460Y371170D02*
Y380670D01*
Y371170D02*
X608960D01*
Y380670D01*
X592460D02*
X608960D01*
D13*
X1240410Y256350D02*
Y264350D01*
Y256350D02*
X1256410D01*
Y264350D01*
X1240410D02*
X1256410D01*
D15*
X1341755Y696808D02*
X1338369Y700194D01*
X1341755D02*
X1338369Y696808D01*
X1341755Y698501D02*
X1338369D01*
X1340062Y700194D02*
Y696808D01*
D134*
X498900Y431200D02*
G03*
X498900Y431200I-5000J0D01*
G01*
X1006430Y331600D02*
G03*
X1006430Y331600I-5000J0D01*
G01*
X644410Y86230D02*
G03*
X644410Y86230I-5000J0D01*
G01*
X790970D02*
G03*
X790970Y86230I-5000J0D01*
G01*
X526840Y172120D02*
G03*
X526840Y172120I-5000J0D01*
G01*
X1232540Y833120D02*
X1287140D01*
Y858520D01*
X1232540D02*
X1287140D01*
X1232540Y833120D02*
Y858520D01*
X1178652Y710060D02*
X1221650D01*
Y675060D02*
Y710060D01*
X1213650Y667060D02*
X1221650Y675060D01*
X1178652D02*
X1186652Y667060D01*
X1186650D02*
X1213650D01*
X1178652Y675060D02*
Y710060D01*
X502900Y422200D02*
Y619200D01*
X436900Y422200D02*
Y619200D01*
Y422200D02*
X502900D01*
X436900Y619200D02*
X502900D01*
D135*
X667735Y197205D02*
G03*
X667735Y238475I15875J20635D01*
G01*
X684880Y241335D02*
G03*
X684880Y241335I-1270J0D01*
G01*
M02*
