G04*
G04 #@! TF.GenerationSoftware,Altium Limited,Altium Designer,24.6.1 (21)*
G04*
G04 Layer_Color=65535*
%FSLAX44Y44*%
%MOMM*%
G71*
G04*
G04 #@! TF.SameCoordinates,44A1DD27-CD51-42AF-A16C-F6F8CAE25C75*
G04*
G04*
G04 #@! TF.FilePolarity,Positive*
G04*
G01*
G75*
%ADD10C,0.4000*%
%ADD11C,0.2500*%
%ADD12C,0.2540*%
%ADD13C,0.2000*%
%ADD14C,0.6000*%
%ADD15C,0.1524*%
%ADD16C,0.5080*%
%ADD17C,0.1520*%
%ADD18R,0.5080X0.5080*%
D10*
X1346930Y209550D02*
G03*
X1346930Y209550I-2000J0D01*
G01*
D11*
X905490Y635260D02*
G03*
X905490Y635260I-1250J0D01*
G01*
X1216402Y374379D02*
G03*
X1216402Y374379I-1250J0D01*
G01*
X1271910Y262890D02*
G03*
X1271910Y262890I-1250J0D01*
G01*
X1327130Y489820D02*
G03*
X1327130Y489820I-1250J0D01*
G01*
X399780Y636320D02*
G03*
X399780Y636320I-1250J0D01*
G01*
X1026140Y863860D02*
G03*
X1026140Y863860I-1250J0D01*
G01*
X1144250Y635260D02*
G03*
X1144250Y635260I-1250J0D01*
G01*
X509250Y431500D02*
G03*
X509250Y431500I-1250J0D01*
G01*
X891470Y290580D02*
G03*
X891470Y290580I-1250J0D01*
G01*
X725100Y345190D02*
G03*
X725100Y345190I-1250J0D01*
G01*
X863580Y139560D02*
G03*
X863580Y139560I-1250J0D01*
G01*
X912105Y360442D02*
G03*
X912105Y360442I-1250J0D01*
G01*
X969995Y325358D02*
G03*
X969995Y325358I-1250J0D01*
G01*
X1002980Y317500D02*
G03*
X1002980Y317500I-1250J0D01*
G01*
X1196578Y393462D02*
G03*
X1196578Y393462I-1250J0D01*
G01*
X1055085Y292338D02*
G03*
X1055085Y292338I-1250J0D01*
G01*
X542270Y865130D02*
G03*
X542270Y865130I-1250J0D01*
G01*
X661650Y635070D02*
G03*
X661650Y635070I-1250J0D01*
G01*
X1348500Y585040D02*
G03*
X1348500Y585040I-1250J0D01*
G01*
X782300Y865130D02*
G03*
X782300Y865130I-1250J0D01*
G01*
X723830Y272800D02*
G03*
X723830Y272800I-1250J0D01*
G01*
X721290Y200410D02*
G03*
X721290Y200410I-1250J0D01*
G01*
X725100Y385830D02*
G03*
X725100Y385830I-1250J0D01*
G01*
X980370Y228350D02*
G03*
X980370Y228350I-1250J0D01*
G01*
X642362Y178805D02*
G03*
X642362Y178805I-1250J0D01*
G01*
X640360Y100330D02*
G03*
X640360Y100330I-1250J0D01*
G01*
X796570D02*
G03*
X796570Y100330I-1250J0D01*
G01*
X655565Y125492D02*
G03*
X655565Y125492I-1250J0D01*
G01*
X537190Y172420D02*
G03*
X537190Y172420I-1250J0D01*
G01*
X398998Y246645D02*
G03*
X398998Y246645I-1250J0D01*
G01*
X831950Y147320D02*
G03*
X831950Y147320I-1250J0D01*
G01*
X432018Y247921D02*
G03*
X432018Y247921I-1250J0D01*
G01*
X399780Y547420D02*
G03*
X399780Y547420I-1250J0D01*
G01*
X980470Y230120D02*
G03*
X980470Y230120I-1250J0D01*
G01*
X1107370Y265180D02*
G03*
X1107370Y265180I-1250J0D01*
G01*
D12*
X1220351Y788371D02*
G03*
X1220351Y788371I-2540J0D01*
G01*
X1181623Y778390D02*
G03*
X1181623Y778390I-2540J0D01*
G01*
X1302180Y772535D02*
G03*
X1302180Y772535I-2540J0D01*
G01*
X1278146Y772889D02*
G03*
X1278146Y772889I-2540J0D01*
G01*
X1275080Y765810D02*
G03*
X1300480Y765810I12700J19262D01*
G01*
X1256477Y767484D02*
G03*
X1256477Y767484I-2540J0D01*
G01*
X1160852Y773044D02*
G03*
X1160852Y773044I-2540J0D01*
G01*
X1200621Y783734D02*
G03*
X1200621Y783734I-2540J0D01*
G01*
X1238745Y783559D02*
G03*
X1238745Y783559I-2540J0D01*
G01*
X915680Y15250D02*
Y200650D01*
Y15250D02*
X1418580D01*
Y200650D01*
X915680D02*
X1418580D01*
X888370Y146690D02*
Y163190D01*
X904870Y146690D02*
Y163190D01*
X808240Y620510D02*
X887990D01*
X920490D02*
X1000240D01*
Y438510D02*
Y620510D01*
X808240Y438510D02*
Y620510D01*
X990240Y428510D02*
X1000240Y438510D01*
X808240D02*
X818240Y428510D01*
X887240D01*
X921240D02*
X990240D01*
X1220351Y788371D02*
Y812979D01*
X1181623Y778390D02*
Y802998D01*
X1278146Y772889D02*
Y797497D01*
X1160852Y773044D02*
Y797652D01*
X1238745Y783559D02*
Y808167D01*
X1256477Y767484D02*
Y792092D01*
X1200621Y783734D02*
Y808342D01*
X952101Y378539D02*
X975759D01*
X952101Y396161D02*
X975759D01*
X1222652Y358684D02*
X1223140D01*
X1207640D02*
X1208128D01*
X1207640Y332184D02*
Y358684D01*
X1222652Y332184D02*
X1223140D01*
X1207640D02*
X1208128D01*
X1223140D02*
Y358684D01*
X1289050Y370040D02*
Y397040D01*
X1279560Y370040D02*
X1331560D01*
Y397040D01*
X1279560D02*
X1331560D01*
X1279560Y370040D02*
Y397040D01*
X1276660Y277390D02*
Y311890D01*
X1299160D01*
X1328160D02*
X1420660D01*
X1276660Y217890D02*
Y248390D01*
X1420660Y217890D02*
Y311890D01*
X1276660Y217890D02*
X1420660D01*
X1331560Y331940D02*
Y358940D01*
X1279560Y331940D02*
X1331560D01*
X1279560D02*
Y358940D01*
X1331560D01*
X1322070Y331940D02*
Y358940D01*
X1246980Y436320D02*
Y483320D01*
X1353980Y436320D02*
Y483320D01*
X1246980D02*
X1353980D01*
X1246980Y436320D02*
X1353980D01*
X1246980Y441320D02*
X1353980D01*
X411480Y553720D02*
Y629920D01*
X386080Y553720D02*
X411480D01*
X386080D02*
Y629920D01*
X411480D01*
X928890Y849110D02*
X1008640D01*
X1041140D02*
X1120890D01*
Y667110D02*
Y849110D01*
X928890Y667110D02*
Y849110D01*
X1110890Y657110D02*
X1120890Y667110D01*
X928890D02*
X938890Y657110D01*
X1007890D01*
X1041890D02*
X1110890D01*
X1047000Y620510D02*
X1126750D01*
X1159250D02*
X1239000D01*
Y438510D02*
Y620510D01*
X1047000Y438510D02*
Y620510D01*
X1229000Y428510D02*
X1239000Y438510D01*
X1047000D02*
X1057000Y428510D01*
X1126000D01*
X1160000D02*
X1229000D01*
X629040Y334900D02*
Y350900D01*
X646040Y334900D02*
Y350900D01*
X650630Y335300D02*
Y351300D01*
X667630Y335300D02*
Y351300D01*
X671200Y301660D02*
Y353660D01*
Y301660D02*
X677350D01*
X671200Y353660D02*
X677350D01*
X426321Y411401D02*
X449979D01*
X426321Y393779D02*
X449979D01*
X386080Y451480D02*
X411480D01*
Y396880D02*
Y451480D01*
X386080Y396880D02*
X411480D01*
X386080D02*
Y451480D01*
X539860Y571120D02*
Y587120D01*
X521860Y571120D02*
Y587120D01*
X655240Y192440D02*
X661390D01*
X655240Y244440D02*
X661390D01*
Y192440D02*
Y244440D01*
X942999Y271631D02*
X972161D01*
X942999Y249069D02*
X972161D01*
X896620Y303530D02*
X972820D01*
Y278130D02*
Y303530D01*
X896620Y278130D02*
X972820D01*
X896620D02*
Y303530D01*
X1002790Y268080D02*
X1009290D01*
X1002790Y250080D02*
X1009290D01*
X730250Y332740D02*
Y358140D01*
Y332740D02*
X806450D01*
Y358140D01*
X730250D02*
X806450D01*
X806650Y42230D02*
Y82230D01*
X828900D02*
X831650D01*
X806650D02*
X809400D01*
X831650Y42230D02*
Y82230D01*
X828900Y42230D02*
X831650D01*
X806650D02*
X809400D01*
X901080Y51410D02*
Y134010D01*
X848980Y51410D02*
X901080D01*
X848980D02*
Y134010D01*
X901080D01*
X662160Y28820D02*
X678160D01*
X662160Y11820D02*
X678160D01*
X926550Y368430D02*
X953050D01*
Y352930D02*
Y353418D01*
Y367942D02*
Y368430D01*
X926550Y352930D02*
X953050D01*
X926550D02*
Y353418D01*
Y367942D02*
Y368430D01*
Y317370D02*
X953050D01*
X926550Y332382D02*
Y332870D01*
Y317370D02*
Y317858D01*
Y332870D02*
X953050D01*
Y332382D02*
Y332870D01*
Y317370D02*
Y317858D01*
X992430Y329100D02*
X1189430D01*
X992430Y382100D02*
X1189430D01*
X992430Y329100D02*
Y349250D01*
Y361950D02*
Y382100D01*
X1189430Y329100D02*
Y382100D01*
X1211024Y401450D02*
X1237524D01*
Y385950D02*
Y386438D01*
Y400962D02*
Y401450D01*
X1211024Y385950D02*
X1237524D01*
X1211024D02*
Y386438D01*
Y400962D02*
Y401450D01*
X1157319Y299621D02*
X1174401D01*
X1157319Y282039D02*
X1174401D01*
X1100700Y273940D02*
Y289940D01*
X1083700Y273940D02*
Y289940D01*
X1061819Y273399D02*
Y290481D01*
X1079401Y273399D02*
Y290481D01*
X1011640Y284350D02*
X1038140D01*
X1011640Y299362D02*
Y299850D01*
Y284350D02*
Y284838D01*
Y299850D02*
X1038140D01*
Y299362D02*
Y299850D01*
Y284350D02*
Y284838D01*
X1248311Y321659D02*
Y338741D01*
X1230729Y321659D02*
Y338741D01*
X1226671Y269899D02*
Y299061D01*
X1204109Y269899D02*
Y299061D01*
X1240810Y303140D02*
X1256810D01*
X1240810Y286140D02*
X1256810D01*
X445020Y850380D02*
X524770D01*
X557270D02*
X637020D01*
Y668380D02*
Y850380D01*
X445020Y668380D02*
Y850380D01*
X627020Y658380D02*
X637020Y668380D01*
X445020D02*
X455020Y658380D01*
X524020D01*
X558020D02*
X627020D01*
X564400Y620320D02*
X644150D01*
X676650D02*
X756400D01*
Y438320D02*
Y620320D01*
X564400Y438320D02*
Y620320D01*
X746400Y428320D02*
X756400Y438320D01*
X564400D02*
X574400Y428320D01*
X643400D01*
X677400D02*
X746400D01*
X1249750Y550540D02*
X1353750D01*
X1353750Y545540D02*
Y591540D01*
X1249750D02*
X1353750D01*
X1249750Y545540D02*
Y591540D01*
Y545540D02*
X1353750D01*
X1238250Y716915D02*
X1342390D01*
X1238250Y672465D02*
Y716915D01*
Y672465D02*
X1342390D01*
Y716915D01*
X1289050Y631660D02*
Y658660D01*
X1279560Y631660D02*
X1331560D01*
Y658660D01*
X1279560D02*
X1331560D01*
X1279560Y631660D02*
Y658660D01*
X1315109Y402739D02*
X1344271D01*
X1315109Y425301D02*
X1344271D01*
X1321021Y619611D02*
X1350183D01*
X1321021Y597049D02*
X1350183D01*
X1272367D02*
X1301529D01*
X1272367Y619611D02*
X1301529D01*
X1266017Y425301D02*
X1295179D01*
X1266017Y402739D02*
X1295179D01*
X798050Y658380D02*
X867050D01*
X695050D02*
X764050D01*
X685050Y668380D02*
X695050Y658380D01*
X867050D02*
X877050Y668380D01*
X685050D02*
Y850380D01*
X877050Y668380D02*
Y850380D01*
X797300D02*
X877050D01*
X685050D02*
X764800D01*
X440591Y87979D02*
Y105061D01*
X423009Y87979D02*
Y105061D01*
X490121Y126079D02*
Y143161D01*
X472539Y126079D02*
Y143161D01*
X496397Y123339D02*
X525559D01*
X496397Y145901D02*
X525559D01*
X446314Y128370D02*
X447766D01*
X446314Y140870D02*
X447766D01*
X856300Y36420D02*
Y39170D01*
Y14170D02*
Y16920D01*
Y14170D02*
X896300D01*
Y36420D02*
Y39170D01*
Y14170D02*
Y16920D01*
X856300Y39170D02*
X896300D01*
X847169Y146921D02*
Y170579D01*
X864791Y146921D02*
Y170579D01*
X728980Y285750D02*
X805180D01*
Y260350D02*
Y285750D01*
X728980Y260350D02*
X805180D01*
X728980D02*
Y285750D01*
X726440Y213360D02*
X802640D01*
Y187960D02*
Y213360D01*
X726440Y187960D02*
X802640D01*
X726440D02*
Y213360D01*
X730250Y398780D02*
X806450D01*
Y373380D02*
Y398780D01*
X730250Y373380D02*
X806450D01*
X730250D02*
Y398780D01*
X819150Y217810D02*
Y323210D01*
X844550D01*
Y217810D02*
Y323210D01*
X819150Y217810D02*
X844550D01*
X985520Y241300D02*
X1061720D01*
Y215900D02*
Y241300D01*
X985520Y215900D02*
X1061720D01*
X985520D02*
Y241300D01*
X1203330Y217170D02*
Y242570D01*
X1257930D01*
Y217170D02*
Y242570D01*
X1203330Y217170D02*
X1257930D01*
X831140Y354440D02*
X837640D01*
X831140Y336440D02*
X837640D01*
X831140Y377080D02*
X837640D01*
X831140Y395080D02*
X837640D01*
X744580Y222140D02*
X751080D01*
X744580Y240140D02*
X751080D01*
X743510Y294530D02*
X750010D01*
X743510Y312530D02*
X750010D01*
X785209Y309781D02*
X802291D01*
X785209Y292199D02*
X802291D01*
X781149Y237100D02*
X801271D01*
X781149Y220100D02*
X801271D01*
X866119Y377289D02*
X883201D01*
X866119Y394871D02*
X883201D01*
X391260Y332363D02*
Y333815D01*
X403760Y332363D02*
Y333815D01*
X552549Y335629D02*
Y352711D01*
X570131Y335629D02*
Y352711D01*
X551081Y126079D02*
Y143161D01*
X533499Y126079D02*
Y143161D01*
X558189Y255419D02*
X587351D01*
X558189Y277981D02*
X587351D01*
X649100Y136610D02*
Y163110D01*
X633600Y136610D02*
X634088D01*
X648612D02*
X649100D01*
X633600D02*
Y163110D01*
X634088D01*
X648612D02*
X649100D01*
X388719Y367379D02*
Y384461D01*
X406301Y367379D02*
Y384461D01*
X627062Y277740D02*
X647184D01*
X627062Y260740D02*
X647184D01*
X465710Y408550D02*
X481710D01*
X465710Y391550D02*
X481710D01*
X646331Y296259D02*
Y313341D01*
X628749Y296259D02*
Y313341D01*
X852269Y305149D02*
Y322231D01*
X869851Y305149D02*
Y322231D01*
X650339Y296629D02*
Y313711D01*
X667921Y296629D02*
Y313711D01*
X1035029Y269141D02*
X1052111D01*
X1035029Y251559D02*
X1052111D01*
X866489Y336649D02*
X883571D01*
X866489Y354231D02*
X883571D01*
X852269Y241649D02*
Y258731D01*
X869851Y241649D02*
Y258731D01*
X451410Y88730D02*
X648410D01*
X451410Y35730D02*
X648410D01*
Y68580D02*
Y88730D01*
Y35730D02*
Y55880D01*
X451410Y35730D02*
Y88730D01*
X921066Y404740D02*
X936066D01*
X921066Y387740D02*
X936066D01*
X386080Y83190D02*
Y188590D01*
Y83190D02*
X411480D01*
Y188590D01*
X386080D02*
X411480D01*
X583570Y353660D02*
X589720D01*
X583570Y301660D02*
X589720D01*
X583570D02*
Y353660D01*
X676810Y62425D02*
Y63878D01*
X664310Y62425D02*
Y63878D01*
X627281Y141319D02*
Y158401D01*
X609699Y141319D02*
Y158401D01*
X693220Y35730D02*
Y88730D01*
X795220Y35730D02*
Y55880D01*
Y68580D02*
Y88730D01*
X693220Y35730D02*
X795220D01*
X693220Y88730D02*
X795220D01*
X670010Y133480D02*
X696510D01*
Y117980D02*
Y118468D01*
Y132992D02*
Y133480D01*
X670010Y117980D02*
X696510D01*
X670010D02*
Y118468D01*
Y132992D02*
Y133480D01*
X471340Y360120D02*
X524340D01*
X471340Y163120D02*
X491490D01*
X504190D02*
X524340D01*
X471340D02*
Y360120D01*
X524340Y163120D02*
Y360120D01*
X389760Y262340D02*
Y288840D01*
X404772D02*
X405260D01*
X389760D02*
X390248D01*
X405260Y262340D02*
Y288840D01*
X404772Y262340D02*
X405260D01*
X389760D02*
X390248D01*
X419249Y178021D02*
Y207183D01*
X441811Y178021D02*
Y207183D01*
X414564Y222350D02*
X416016D01*
X414564Y234850D02*
X416016D01*
X426840Y154060D02*
X441840D01*
X426840Y171060D02*
X441840D01*
X725800Y122520D02*
Y172120D01*
X823600D01*
Y122520D02*
Y172120D01*
X725800Y122520D02*
X823600D01*
X422780Y263616D02*
Y290116D01*
X437792D02*
X438280D01*
X422780D02*
X423268D01*
X438280Y263616D02*
Y290116D01*
X437792Y263616D02*
X438280D01*
X422780D02*
X423268D01*
X666465Y197205D02*
Y238475D01*
X1186810Y217170D02*
Y242570D01*
X1081410Y217170D02*
X1186810D01*
X1081410D02*
Y242570D01*
X1186810D01*
X849000Y209550D02*
X903600D01*
X849000Y184150D02*
Y209550D01*
Y184150D02*
X903600D01*
Y209550D01*
X593180Y245420D02*
X609430D01*
X556430D02*
X572680D01*
X556430Y125420D02*
Y245420D01*
X593180Y125420D02*
X609430D01*
X556430D02*
X572680D01*
X609430D02*
Y245420D01*
X422030Y314580D02*
Y330580D01*
X439030Y314580D02*
Y330580D01*
X422030Y351410D02*
Y367410D01*
X439030Y351410D02*
Y367410D01*
X677030Y150250D02*
X692030D01*
X677030Y167250D02*
X692030D01*
X386080Y541020D02*
X411480D01*
X386080Y464820D02*
Y541020D01*
Y464820D02*
X411480D01*
Y541020D01*
X1112520Y252730D02*
Y278130D01*
Y252730D02*
X1188720D01*
Y278130D01*
X1112520D02*
X1188720D01*
X972820Y217170D02*
Y242570D01*
X896620D02*
X972820D01*
X896620Y217170D02*
Y242570D01*
Y217170D02*
X972820D01*
X592710Y366920D02*
X608710D01*
X592710Y384920D02*
X608710D01*
X1129030Y829307D02*
X1134108Y819150D01*
X1139187Y829307D01*
X1144265Y819150D02*
X1149343D01*
X1146804D01*
Y834385D01*
X1144265Y831846D01*
X1156961Y819150D02*
Y821689D01*
X1159500D01*
Y819150D01*
X1156961D01*
X1169657Y831846D02*
X1172196Y834385D01*
X1177274D01*
X1179814Y831846D01*
Y821689D01*
X1177274Y819150D01*
X1172196D01*
X1169657Y821689D01*
Y831846D01*
X1129030Y755643D02*
Y740408D01*
X1136647D01*
X1139187Y742947D01*
Y753104D01*
X1136647Y755643D01*
X1129030D01*
X1151883Y740408D02*
X1146804D01*
X1144265Y742947D01*
Y748026D01*
X1146804Y750565D01*
X1151883D01*
X1154422Y748026D01*
Y745487D01*
X1144265D01*
X1159500Y740408D02*
X1167118D01*
X1169657Y742947D01*
X1167118Y745487D01*
X1162039D01*
X1159500Y748026D01*
X1162039Y750565D01*
X1169657D01*
X1174735Y740408D02*
X1179814D01*
X1177274D01*
Y750565D01*
X1174735D01*
X1192510Y735330D02*
X1195049D01*
X1197588Y737869D01*
Y750565D01*
X1189970D01*
X1187431Y748026D01*
Y742947D01*
X1189970Y740408D01*
X1197588D01*
X1202666D02*
Y750565D01*
X1210284D01*
X1212823Y748026D01*
Y740408D01*
X1225519D02*
X1220440D01*
X1217901Y742947D01*
Y748026D01*
X1220440Y750565D01*
X1225519D01*
X1228058Y748026D01*
Y745487D01*
X1217901D01*
X1243293Y755643D02*
Y740408D01*
X1235676D01*
X1233136Y742947D01*
Y748026D01*
X1235676Y750565D01*
X1243293D01*
X1263606Y755643D02*
Y740408D01*
X1271224D01*
X1273763Y742947D01*
Y745487D01*
Y748026D01*
X1271224Y750565D01*
X1263606D01*
X1278841D02*
Y742947D01*
X1281381Y740408D01*
X1288998D01*
Y737869D01*
X1286459Y735330D01*
X1283920D01*
X1288998Y740408D02*
Y750565D01*
X1309312Y740408D02*
Y755643D01*
X1316929D01*
X1319468Y753104D01*
Y748026D01*
X1316929Y745487D01*
X1309312D01*
X1314390D02*
X1319468Y740408D01*
X1327086Y750565D02*
X1332164D01*
X1334704Y748026D01*
Y740408D01*
X1327086D01*
X1324547Y742947D01*
X1327086Y745487D01*
X1334704D01*
X1339782Y740408D02*
Y750565D01*
X1342321D01*
X1344860Y748026D01*
Y740408D01*
Y748026D01*
X1347399Y750565D01*
X1349939Y748026D01*
Y740408D01*
X1129030Y843280D02*
Y858515D01*
X1134108Y853437D01*
X1139187Y858515D01*
Y843280D01*
X1146804D02*
X1151883D01*
X1154422Y845819D01*
Y850898D01*
X1151883Y853437D01*
X1146804D01*
X1144265Y850898D01*
Y845819D01*
X1146804Y843280D01*
X1169657Y858515D02*
Y843280D01*
X1162039D01*
X1159500Y845819D01*
Y850898D01*
X1162039Y853437D01*
X1169657D01*
X1174735D02*
Y845819D01*
X1177274Y843280D01*
X1184892D01*
Y853437D01*
X1189970Y843280D02*
X1195049D01*
X1192510D01*
Y858515D01*
X1189970D01*
X1202666Y843280D02*
X1207745D01*
X1205205D01*
Y853437D01*
X1202666D01*
X1215362Y843280D02*
Y853437D01*
X1222980D01*
X1225519Y850898D01*
Y843280D01*
D13*
X699350Y301660D02*
G03*
X699350Y353660I-17783J26000D01*
G01*
X476250Y422200D02*
G03*
X463550Y422200I-6350J0D01*
G01*
X633240Y244440D02*
G03*
X633240Y192440I17783J-26000D01*
G01*
X992430Y349250D02*
G03*
X992430Y361950I0J6350D01*
G01*
X648410Y68580D02*
G03*
X648410Y55880I0J-6350D01*
G01*
X611720Y301660D02*
G03*
X611720Y353660I-17783J26000D01*
G01*
X795220Y68580D02*
G03*
X795220Y55880I0J-6350D01*
G01*
X504190Y163120D02*
G03*
X491490Y163120I-6350J0D01*
G01*
X1232540Y833120D02*
X1287140D01*
Y858520D01*
X1232540D02*
X1287140D01*
X1232540Y833120D02*
Y858520D01*
X1222650Y674060D02*
Y711060D01*
X1214650Y666060D02*
X1222650Y674060D01*
X1177650D02*
X1185650Y666060D01*
X1177650Y674060D02*
Y711060D01*
X1211150D02*
X1222650D01*
X1177650D02*
X1189150D01*
X1211150Y666060D02*
X1214650D01*
X1185650D02*
X1189150D01*
X496400Y422200D02*
Y619200D01*
X443400Y422200D02*
Y619200D01*
X476250Y422200D02*
X496400D01*
X443400D02*
X463550D01*
X443400Y619200D02*
X496400D01*
X1238349Y268850D02*
X1258471D01*
X1238349Y251850D02*
X1258471D01*
D14*
X489400Y432200D02*
G03*
X489400Y432200I-3000J0D01*
G01*
X1005430Y339100D02*
G03*
X1005430Y339100I-3000J0D01*
G01*
X641410Y78730D02*
G03*
X641410Y78730I-3000J0D01*
G01*
X788220D02*
G03*
X788220Y78730I-3000J0D01*
G01*
X517340Y173120D02*
G03*
X517340Y173120I-3000J0D01*
G01*
D15*
X693526Y192399D02*
G03*
X693541Y243275I-9916J25441D01*
G01*
X666961Y196198D02*
G03*
X673694Y192399I16649J21642D01*
G01*
X684880Y262925D02*
G03*
X684880Y262925I-1270J0D01*
G01*
X673679Y243275D02*
G03*
X666961Y239482I9931J-25435D01*
G01*
X1205598Y649336D02*
X1195150D01*
X1200374Y654560D02*
Y644112D01*
X1354455Y696808D02*
X1351069Y700194D01*
X1354455D02*
X1351069Y696808D01*
X1354455Y698501D02*
X1351069D01*
X1352762Y700194D02*
Y696808D01*
X1050714Y630533D02*
X1049867Y631379D01*
X1048175D01*
X1047328Y630533D01*
Y627147D01*
X1048175Y626301D01*
X1049867D01*
X1050714Y627147D01*
X1052406Y630533D02*
X1053253Y631379D01*
X1054946D01*
X1055792Y630533D01*
Y629686D01*
X1054946Y628840D01*
X1054099D01*
X1054946D01*
X1055792Y627994D01*
Y627147D01*
X1054946Y626301D01*
X1053253D01*
X1052406Y627147D01*
X451274Y370839D02*
Y366607D01*
X452121Y365761D01*
X453814D01*
X454660Y366607D01*
Y370839D01*
X456353Y365761D02*
X458046D01*
X457199D01*
Y370839D01*
X456353Y369993D01*
X534248Y148221D02*
Y153299D01*
X536787D01*
X537634Y152453D01*
Y150760D01*
X536787Y149914D01*
X534248D01*
X535941D02*
X537634Y148221D01*
X542712Y153299D02*
X541019Y152453D01*
X539326Y150760D01*
Y149067D01*
X540173Y148221D01*
X541866D01*
X542712Y149067D01*
Y149914D01*
X541866Y150760D01*
X539326D01*
X810709Y177801D02*
Y182879D01*
X813248D01*
X814094Y182033D01*
Y180340D01*
X813248Y179494D01*
X810709D01*
X812402D02*
X814094Y177801D01*
X819173D02*
X815787D01*
X819173Y181186D01*
Y182033D01*
X818326Y182879D01*
X816634D01*
X815787Y182033D01*
X823405Y177801D02*
Y182879D01*
X820866Y180340D01*
X824251D01*
X1236982Y725169D02*
Y720937D01*
X1237829Y720091D01*
X1239521D01*
X1240368Y720937D01*
Y725169D01*
X1242060Y720091D02*
X1243753D01*
X1242907D01*
Y725169D01*
X1242060Y724323D01*
X1246292D02*
X1247139Y725169D01*
X1248832D01*
X1249678Y724323D01*
Y720937D01*
X1248832Y720091D01*
X1247139D01*
X1246292Y720937D01*
Y724323D01*
X924138Y191769D02*
Y187537D01*
X924985Y186691D01*
X926677D01*
X927524Y187537D01*
Y191769D01*
X929216Y187537D02*
X930063Y186691D01*
X931756D01*
X932602Y187537D01*
Y190923D01*
X931756Y191769D01*
X930063D01*
X929216Y190923D01*
Y190076D01*
X930063Y189230D01*
X932602D01*
X990178Y412749D02*
Y408517D01*
X991024Y407671D01*
X992717D01*
X993564Y408517D01*
Y412749D01*
X998642D02*
X996949Y411903D01*
X995256Y410210D01*
Y408517D01*
X996103Y407671D01*
X997796D01*
X998642Y408517D01*
Y409364D01*
X997796Y410210D01*
X995256D01*
X805179Y22012D02*
X800947D01*
X800101Y21165D01*
Y19473D01*
X800947Y18626D01*
X805179D01*
Y13548D02*
Y16934D01*
X802640D01*
X803486Y15241D01*
Y14394D01*
X802640Y13548D01*
X800947D01*
X800101Y14394D01*
Y16087D01*
X800947Y16934D01*
X1247988Y494029D02*
Y489797D01*
X1248835Y488951D01*
X1250527D01*
X1251374Y489797D01*
Y494029D01*
X1255606Y488951D02*
Y494029D01*
X1253066Y491490D01*
X1256452D01*
X441961Y13548D02*
X446193D01*
X447039Y14395D01*
Y16087D01*
X446193Y16934D01*
X441961D01*
X442807Y18626D02*
X441961Y19473D01*
Y21166D01*
X442807Y22012D01*
X443654D01*
X444500Y21166D01*
Y20319D01*
Y21166D01*
X445346Y22012D01*
X446193D01*
X447039Y21166D01*
Y19473D01*
X446193Y18626D01*
X1250528Y539749D02*
Y535517D01*
X1251375Y534671D01*
X1253067D01*
X1253914Y535517D01*
Y539749D01*
X1258992Y534671D02*
X1255606D01*
X1258992Y538056D01*
Y538903D01*
X1258146Y539749D01*
X1256453D01*
X1255606Y538903D01*
X588772Y392684D02*
Y397762D01*
X591311D01*
X592158Y396916D01*
Y395223D01*
X591311Y394377D01*
X588772D01*
X590465D02*
X592158Y392684D01*
X597236Y397762D02*
X593850D01*
Y395223D01*
X595543Y396070D01*
X596390D01*
X597236Y395223D01*
Y393530D01*
X596390Y392684D01*
X594697D01*
X593850Y393530D01*
X598929Y396916D02*
X599775Y397762D01*
X601468D01*
X602314Y396916D01*
Y393530D01*
X601468Y392684D01*
X599775D01*
X598929Y393530D01*
Y396916D01*
X851749Y264161D02*
Y269239D01*
X854288D01*
X855134Y268393D01*
Y266700D01*
X854288Y265854D01*
X851749D01*
X853442D02*
X855134Y264161D01*
X859366D02*
Y269239D01*
X856827Y266700D01*
X860213D01*
X861906Y265007D02*
X862752Y264161D01*
X864445D01*
X865291Y265007D01*
Y268393D01*
X864445Y269239D01*
X862752D01*
X861906Y268393D01*
Y267546D01*
X862752Y266700D01*
X865291D01*
X460589Y410211D02*
Y415289D01*
X463128D01*
X463974Y414443D01*
Y412750D01*
X463128Y411904D01*
X460589D01*
X462282D02*
X463974Y410211D01*
X468206D02*
Y415289D01*
X465667Y412750D01*
X469053D01*
X470746Y414443D02*
X471592Y415289D01*
X473285D01*
X474131Y414443D01*
Y413596D01*
X473285Y412750D01*
X474131Y411904D01*
Y411057D01*
X473285Y410211D01*
X471592D01*
X470746Y411057D01*
Y411904D01*
X471592Y412750D01*
X470746Y413596D01*
Y414443D01*
X471592Y412750D02*
X473285D01*
X629499Y356871D02*
Y361949D01*
X632038D01*
X632884Y361103D01*
Y359410D01*
X632038Y358564D01*
X629499D01*
X631192D02*
X632884Y356871D01*
X637116D02*
Y361949D01*
X634577Y359410D01*
X637963D01*
X639656Y361949D02*
X643041D01*
Y361103D01*
X639656Y357717D01*
Y356871D01*
X921599Y410211D02*
Y415289D01*
X924138D01*
X924984Y414443D01*
Y412750D01*
X924138Y411904D01*
X921599D01*
X923292D02*
X924984Y410211D01*
X929216D02*
Y415289D01*
X926677Y412750D01*
X930063D01*
X935141Y415289D02*
X933448Y414443D01*
X931756Y412750D01*
Y411057D01*
X932602Y410211D01*
X934295D01*
X935141Y411057D01*
Y411904D01*
X934295Y412750D01*
X931756D01*
X463479Y381001D02*
Y386079D01*
X466018D01*
X466864Y385233D01*
Y383540D01*
X466018Y382694D01*
X463479D01*
X465172D02*
X466864Y381001D01*
X471096D02*
Y386079D01*
X468557Y383540D01*
X471943D01*
X477021Y386079D02*
X473636D01*
Y383540D01*
X475328Y384386D01*
X476175D01*
X477021Y383540D01*
Y381847D01*
X476175Y381001D01*
X474482D01*
X473636Y381847D01*
X423293Y414021D02*
Y419099D01*
X425832D01*
X426678Y418253D01*
Y416560D01*
X425832Y415714D01*
X423293D01*
X424986D02*
X426678Y414021D01*
X430910D02*
Y419099D01*
X428371Y416560D01*
X431757D01*
X435989Y414021D02*
Y419099D01*
X433450Y416560D01*
X436835D01*
X649819Y356871D02*
Y361949D01*
X652358D01*
X653204Y361103D01*
Y359410D01*
X652358Y358564D01*
X649819D01*
X651512D02*
X653204Y356871D01*
X657436D02*
Y361949D01*
X654897Y359410D01*
X658283D01*
X659976Y361103D02*
X660822Y361949D01*
X662515D01*
X663361Y361103D01*
Y360256D01*
X662515Y359410D01*
X661668D01*
X662515D01*
X663361Y358564D01*
Y357717D01*
X662515Y356871D01*
X660822D01*
X659976Y357717D01*
X851749Y327661D02*
Y332739D01*
X854288D01*
X855134Y331893D01*
Y330200D01*
X854288Y329354D01*
X851749D01*
X853442D02*
X855134Y327661D01*
X859366D02*
Y332739D01*
X856827Y330200D01*
X860213D01*
X865291Y327661D02*
X861906D01*
X865291Y331046D01*
Y331893D01*
X864445Y332739D01*
X862752D01*
X861906Y331893D01*
X384809Y371265D02*
X379731D01*
Y373805D01*
X380577Y374651D01*
X382270D01*
X383116Y373805D01*
Y371265D01*
Y372958D02*
X384809Y374651D01*
Y378883D02*
X379731D01*
X382270Y376344D01*
Y379729D01*
X384809Y381422D02*
Y383115D01*
Y382268D01*
X379731D01*
X380577Y381422D01*
X521971Y408091D02*
X527049D01*
Y405552D01*
X526203Y404706D01*
X524510D01*
X523664Y405552D01*
Y408091D01*
Y406398D02*
X521971Y404706D01*
Y400474D02*
X527049D01*
X524510Y403013D01*
Y399627D01*
X526203Y397934D02*
X527049Y397088D01*
Y395395D01*
X526203Y394549D01*
X522817D01*
X521971Y395395D01*
Y397088D01*
X522817Y397934D01*
X526203D01*
X521549Y594361D02*
Y599439D01*
X524088D01*
X524934Y598593D01*
Y596900D01*
X524088Y596054D01*
X521549D01*
X523242D02*
X524934Y594361D01*
X526627Y598593D02*
X527474Y599439D01*
X529166D01*
X530013Y598593D01*
Y597746D01*
X529166Y596900D01*
X528320D01*
X529166D01*
X530013Y596054D01*
Y595207D01*
X529166Y594361D01*
X527474D01*
X526627Y595207D01*
X531706D02*
X532552Y594361D01*
X534245D01*
X535091Y595207D01*
Y598593D01*
X534245Y599439D01*
X532552D01*
X531706Y598593D01*
Y597746D01*
X532552Y596900D01*
X535091D01*
X628229Y318771D02*
Y323849D01*
X630768D01*
X631614Y323003D01*
Y321310D01*
X630768Y320464D01*
X628229D01*
X629922D02*
X631614Y318771D01*
X633307Y323003D02*
X634154Y323849D01*
X635846D01*
X636693Y323003D01*
Y322156D01*
X635846Y321310D01*
X635000D01*
X635846D01*
X636693Y320464D01*
Y319617D01*
X635846Y318771D01*
X634154D01*
X633307Y319617D01*
X638386Y323003D02*
X639232Y323849D01*
X640925D01*
X641771Y323003D01*
Y322156D01*
X640925Y321310D01*
X641771Y320464D01*
Y319617D01*
X640925Y318771D01*
X639232D01*
X638386Y319617D01*
Y320464D01*
X639232Y321310D01*
X638386Y322156D01*
Y323003D01*
X639232Y321310D02*
X640925D01*
X651089Y318771D02*
Y323849D01*
X653628D01*
X654474Y323003D01*
Y321310D01*
X653628Y320464D01*
X651089D01*
X652782D02*
X654474Y318771D01*
X656167Y323003D02*
X657014Y323849D01*
X658706D01*
X659553Y323003D01*
Y322156D01*
X658706Y321310D01*
X657860D01*
X658706D01*
X659553Y320464D01*
Y319617D01*
X658706Y318771D01*
X657014D01*
X656167Y319617D01*
X661246Y323849D02*
X664631D01*
Y323003D01*
X661246Y319617D01*
Y318771D01*
X1179831Y297601D02*
X1184909D01*
Y295062D01*
X1184063Y294216D01*
X1182370D01*
X1181524Y295062D01*
Y297601D01*
Y295908D02*
X1179831Y294216D01*
X1184063Y292523D02*
X1184909Y291676D01*
Y289984D01*
X1184063Y289137D01*
X1183216D01*
X1182370Y289984D01*
Y290830D01*
Y289984D01*
X1181524Y289137D01*
X1180677D01*
X1179831Y289984D01*
Y291676D01*
X1180677Y292523D01*
X1184909Y284059D02*
X1184063Y285752D01*
X1182370Y287444D01*
X1180677D01*
X1179831Y286598D01*
Y284905D01*
X1180677Y284059D01*
X1181524D01*
X1182370Y284905D01*
Y287444D01*
X957159Y401321D02*
Y406399D01*
X959698D01*
X960544Y405553D01*
Y403860D01*
X959698Y403014D01*
X957159D01*
X958852D02*
X960544Y401321D01*
X962237Y405553D02*
X963084Y406399D01*
X964776D01*
X965623Y405553D01*
Y404706D01*
X964776Y403860D01*
X963930D01*
X964776D01*
X965623Y403014D01*
Y402167D01*
X964776Y401321D01*
X963084D01*
X962237Y402167D01*
X970701Y406399D02*
X967316D01*
Y403860D01*
X969008Y404706D01*
X969855D01*
X970701Y403860D01*
Y402167D01*
X969855Y401321D01*
X968162D01*
X967316Y402167D01*
X1085429Y294641D02*
Y299719D01*
X1087968D01*
X1088814Y298873D01*
Y297180D01*
X1087968Y296334D01*
X1085429D01*
X1087122D02*
X1088814Y294641D01*
X1090507Y298873D02*
X1091354Y299719D01*
X1093046D01*
X1093893Y298873D01*
Y298026D01*
X1093046Y297180D01*
X1092200D01*
X1093046D01*
X1093893Y296334D01*
Y295487D01*
X1093046Y294641D01*
X1091354D01*
X1090507Y295487D01*
X1098125Y294641D02*
Y299719D01*
X1095586Y297180D01*
X1098971D01*
X1063839Y294641D02*
Y299719D01*
X1066378D01*
X1067224Y298873D01*
Y297180D01*
X1066378Y296334D01*
X1063839D01*
X1065532D02*
X1067224Y294641D01*
X1068917Y298873D02*
X1069764Y299719D01*
X1071456D01*
X1072303Y298873D01*
Y298026D01*
X1071456Y297180D01*
X1070610D01*
X1071456D01*
X1072303Y296334D01*
Y295487D01*
X1071456Y294641D01*
X1069764D01*
X1068917Y295487D01*
X1073996Y298873D02*
X1074842Y299719D01*
X1076535D01*
X1077381Y298873D01*
Y298026D01*
X1076535Y297180D01*
X1075688D01*
X1076535D01*
X1077381Y296334D01*
Y295487D01*
X1076535Y294641D01*
X1074842D01*
X1073996Y295487D01*
X870799Y171451D02*
Y176529D01*
X873338D01*
X874184Y175683D01*
Y173990D01*
X873338Y173144D01*
X870799D01*
X872492D02*
X874184Y171451D01*
X875877Y175683D02*
X876724Y176529D01*
X878416D01*
X879263Y175683D01*
Y174836D01*
X878416Y173990D01*
X877570D01*
X878416D01*
X879263Y173144D01*
Y172297D01*
X878416Y171451D01*
X876724D01*
X875877Y172297D01*
X884341Y171451D02*
X880956D01*
X884341Y174836D01*
Y175683D01*
X883495Y176529D01*
X881802D01*
X880956Y175683D01*
X890695Y173991D02*
Y179069D01*
X893234D01*
X894081Y178223D01*
Y176530D01*
X893234Y175684D01*
X890695D01*
X892388D02*
X894081Y173991D01*
X895774Y178223D02*
X896620Y179069D01*
X898313D01*
X899159Y178223D01*
Y177376D01*
X898313Y176530D01*
X897466D01*
X898313D01*
X899159Y175684D01*
Y174837D01*
X898313Y173991D01*
X896620D01*
X895774Y174837D01*
X900852Y173991D02*
X902545D01*
X901698D01*
Y179069D01*
X900852Y178223D01*
X1230209Y345441D02*
Y350519D01*
X1232748D01*
X1233594Y349673D01*
Y347980D01*
X1232748Y347134D01*
X1230209D01*
X1231902D02*
X1233594Y345441D01*
X1235287Y349673D02*
X1236134Y350519D01*
X1237826D01*
X1238673Y349673D01*
Y348826D01*
X1237826Y347980D01*
X1236980D01*
X1237826D01*
X1238673Y347134D01*
Y346287D01*
X1237826Y345441D01*
X1236134D01*
X1235287Y346287D01*
X1240366Y349673D02*
X1241212Y350519D01*
X1242905D01*
X1243751Y349673D01*
Y346287D01*
X1242905Y345441D01*
X1241212D01*
X1240366Y346287D01*
Y349673D01*
X1262381Y301411D02*
X1267459D01*
Y298872D01*
X1266613Y298025D01*
X1264920D01*
X1264074Y298872D01*
Y301411D01*
Y299718D02*
X1262381Y298025D01*
Y292947D02*
Y296333D01*
X1265766Y292947D01*
X1266613D01*
X1267459Y293794D01*
Y295486D01*
X1266613Y296333D01*
X1263227Y291254D02*
X1262381Y290408D01*
Y288715D01*
X1263227Y287869D01*
X1266613D01*
X1267459Y288715D01*
Y290408D01*
X1266613Y291254D01*
X1265766D01*
X1264920Y290408D01*
Y287869D01*
X842009Y151979D02*
X836931D01*
Y154518D01*
X837777Y155365D01*
X839470D01*
X840316Y154518D01*
Y151979D01*
Y153672D02*
X842009Y155365D01*
Y160443D02*
Y157057D01*
X838624Y160443D01*
X837777D01*
X836931Y159596D01*
Y157904D01*
X837777Y157057D01*
Y162136D02*
X836931Y162982D01*
Y164675D01*
X837777Y165521D01*
X838624D01*
X839470Y164675D01*
X840316Y165521D01*
X841163D01*
X842009Y164675D01*
Y162982D01*
X841163Y162136D01*
X840316D01*
X839470Y162982D01*
X838624Y162136D01*
X837777D01*
X839470Y162982D02*
Y164675D01*
X663789Y83821D02*
Y88899D01*
X666328D01*
X667174Y88053D01*
Y86360D01*
X666328Y85514D01*
X663789D01*
X665482D02*
X667174Y83821D01*
X672253D02*
X668867D01*
X672253Y87206D01*
Y88053D01*
X671406Y88899D01*
X669714D01*
X668867Y88053D01*
X673946Y88899D02*
X677331D01*
Y88053D01*
X673946Y84667D01*
Y83821D01*
X658709Y34291D02*
Y39369D01*
X661248D01*
X662094Y38523D01*
Y36830D01*
X661248Y35984D01*
X658709D01*
X660402D02*
X662094Y34291D01*
X667173D02*
X663787D01*
X667173Y37676D01*
Y38523D01*
X666326Y39369D01*
X664634D01*
X663787Y38523D01*
X672251Y39369D02*
X670558Y38523D01*
X668866Y36830D01*
Y35137D01*
X669712Y34291D01*
X671405D01*
X672251Y35137D01*
Y35984D01*
X671405Y36830D01*
X668866D01*
X672679Y170181D02*
Y175259D01*
X675218D01*
X676064Y174413D01*
Y172720D01*
X675218Y171874D01*
X672679D01*
X674372D02*
X676064Y170181D01*
X681143D02*
X677757D01*
X681143Y173566D01*
Y174413D01*
X680296Y175259D01*
X678604D01*
X677757Y174413D01*
X686221Y175259D02*
X682836D01*
Y172720D01*
X684528Y173566D01*
X685375D01*
X686221Y172720D01*
Y171027D01*
X685375Y170181D01*
X683682D01*
X682836Y171027D01*
X628229Y281941D02*
Y287019D01*
X630768D01*
X631614Y286173D01*
Y284480D01*
X630768Y283634D01*
X628229D01*
X629922D02*
X631614Y281941D01*
X636693D02*
X633307D01*
X636693Y285326D01*
Y286173D01*
X635846Y287019D01*
X634154D01*
X633307Y286173D01*
X638386D02*
X639232Y287019D01*
X640925D01*
X641771Y286173D01*
Y285326D01*
X640925Y284480D01*
X640078D01*
X640925D01*
X641771Y283634D01*
Y282787D01*
X640925Y281941D01*
X639232D01*
X638386Y282787D01*
X1030079Y271781D02*
Y276859D01*
X1032618D01*
X1033464Y276013D01*
Y274320D01*
X1032618Y273474D01*
X1030079D01*
X1031772D02*
X1033464Y271781D01*
X1038543D02*
X1035157D01*
X1038543Y275166D01*
Y276013D01*
X1037696Y276859D01*
X1036004D01*
X1035157Y276013D01*
X1043621Y271781D02*
X1040236D01*
X1043621Y275166D01*
Y276013D01*
X1042775Y276859D01*
X1041082D01*
X1040236Y276013D01*
X780205Y242571D02*
Y247649D01*
X782745D01*
X783591Y246803D01*
Y245110D01*
X782745Y244264D01*
X780205D01*
X781898D02*
X783591Y242571D01*
X788669D02*
X785284D01*
X788669Y245956D01*
Y246803D01*
X787823Y247649D01*
X786130D01*
X785284Y246803D01*
X790362Y242571D02*
X792055D01*
X791208D01*
Y247649D01*
X790362Y246803D01*
X986369Y271781D02*
Y276859D01*
X988908D01*
X989754Y276013D01*
Y274320D01*
X988908Y273474D01*
X986369D01*
X988062D02*
X989754Y271781D01*
X994833D02*
X991447D01*
X994833Y275166D01*
Y276013D01*
X993986Y276859D01*
X992294D01*
X991447Y276013D01*
X996526D02*
X997372Y276859D01*
X999065D01*
X999911Y276013D01*
Y272627D01*
X999065Y271781D01*
X997372D01*
X996526Y272627D01*
Y276013D01*
X723899Y224792D02*
X718821D01*
Y227331D01*
X719667Y228178D01*
X721360D01*
X722206Y227331D01*
Y224792D01*
Y226485D02*
X723899Y228178D01*
Y229870D02*
Y231563D01*
Y230717D01*
X718821D01*
X719667Y229870D01*
X723053Y234102D02*
X723899Y234949D01*
Y236642D01*
X723053Y237488D01*
X719667D01*
X718821Y236642D01*
Y234949D01*
X719667Y234102D01*
X720514D01*
X721360Y234949D01*
Y237488D01*
X422912Y110491D02*
Y115569D01*
X425451D01*
X426298Y114723D01*
Y113030D01*
X425451Y112184D01*
X422912D01*
X424605D02*
X426298Y110491D01*
X427990D02*
X429683D01*
X428837D01*
Y115569D01*
X427990Y114723D01*
X432222D02*
X433069Y115569D01*
X434762D01*
X435608Y114723D01*
Y113876D01*
X434762Y113030D01*
X435608Y112184D01*
Y111337D01*
X434762Y110491D01*
X433069D01*
X432222Y111337D01*
Y112184D01*
X433069Y113030D01*
X432222Y113876D01*
Y114723D01*
X433069Y113030D02*
X434762D01*
X472442Y151131D02*
Y156209D01*
X474981D01*
X475828Y155363D01*
Y153670D01*
X474981Y152824D01*
X472442D01*
X474135D02*
X475828Y151131D01*
X477520D02*
X479213D01*
X478367D01*
Y156209D01*
X477520Y155363D01*
X481752Y156209D02*
X485138D01*
Y155363D01*
X481752Y151977D01*
Y151131D01*
X614682Y163831D02*
Y168909D01*
X617221D01*
X618068Y168063D01*
Y166370D01*
X617221Y165524D01*
X614682D01*
X616375D02*
X618068Y163831D01*
X619760D02*
X621453D01*
X620607D01*
Y168909D01*
X619760Y168063D01*
X627378Y168909D02*
X625685Y168063D01*
X623992Y166370D01*
Y164677D01*
X624839Y163831D01*
X626532D01*
X627378Y164677D01*
Y165524D01*
X626532Y166370D01*
X623992D01*
X863602Y358141D02*
Y363219D01*
X866141D01*
X866988Y362373D01*
Y360680D01*
X866141Y359834D01*
X863602D01*
X865295D02*
X866988Y358141D01*
X868680D02*
X870373D01*
X869527D01*
Y363219D01*
X868680Y362373D01*
X876298Y363219D02*
X872912D01*
Y360680D01*
X874605Y361526D01*
X875452D01*
X876298Y360680D01*
Y358987D01*
X875452Y358141D01*
X873759D01*
X872912Y358987D01*
X815342Y356871D02*
Y361949D01*
X817881D01*
X818728Y361103D01*
Y359410D01*
X817881Y358564D01*
X815342D01*
X817035D02*
X818728Y356871D01*
X820420D02*
X822113D01*
X821267D01*
Y361949D01*
X820420Y361103D01*
X827192Y356871D02*
Y361949D01*
X824652Y359410D01*
X828038D01*
X426719Y128272D02*
X421641D01*
Y130811D01*
X422487Y131658D01*
X424180D01*
X425026Y130811D01*
Y128272D01*
Y129965D02*
X426719Y131658D01*
Y133350D02*
Y135043D01*
Y134197D01*
X421641D01*
X422487Y133350D01*
Y137582D02*
X421641Y138429D01*
Y140122D01*
X422487Y140968D01*
X423334D01*
X424180Y140122D01*
Y139275D01*
Y140122D01*
X425026Y140968D01*
X425873D01*
X426719Y140122D01*
Y138429D01*
X425873Y137582D01*
X781052Y314961D02*
Y320039D01*
X783591D01*
X784438Y319193D01*
Y317500D01*
X783591Y316654D01*
X781052D01*
X782745D02*
X784438Y314961D01*
X786130D02*
X787823D01*
X786977D01*
Y320039D01*
X786130Y319193D01*
X793748Y314961D02*
X790362D01*
X793748Y318346D01*
Y319193D01*
X792902Y320039D01*
X791209D01*
X790362Y319193D01*
X722629Y298029D02*
X717551D01*
Y300568D01*
X718397Y301414D01*
X720090D01*
X720936Y300568D01*
Y298029D01*
Y299721D02*
X722629Y301414D01*
Y303107D02*
Y304800D01*
Y303953D01*
X717551D01*
X718397Y303107D01*
X722629Y307339D02*
Y309032D01*
Y308185D01*
X717551D01*
X718397Y307339D01*
X862332Y398781D02*
Y403859D01*
X864871D01*
X865718Y403013D01*
Y401320D01*
X864871Y400474D01*
X862332D01*
X864025D02*
X865718Y398781D01*
X867410D02*
X869103D01*
X868257D01*
Y403859D01*
X867410Y403013D01*
X871642D02*
X872489Y403859D01*
X874182D01*
X875028Y403013D01*
Y399627D01*
X874182Y398781D01*
X872489D01*
X871642Y399627D01*
Y403013D01*
X816188Y397511D02*
Y402589D01*
X818727D01*
X819574Y401743D01*
Y400050D01*
X818727Y399204D01*
X816188D01*
X817881D02*
X819574Y397511D01*
X821266Y398357D02*
X822113Y397511D01*
X823806D01*
X824652Y398357D01*
Y401743D01*
X823806Y402589D01*
X822113D01*
X821266Y401743D01*
Y400896D01*
X822113Y400050D01*
X824652D01*
X421639Y157058D02*
X416561D01*
Y159597D01*
X417407Y160444D01*
X419100D01*
X419946Y159597D01*
Y157058D01*
Y158751D02*
X421639Y160444D01*
X417407Y162136D02*
X416561Y162983D01*
Y164676D01*
X417407Y165522D01*
X418254D01*
X419100Y164676D01*
X419946Y165522D01*
X420793D01*
X421639Y164676D01*
Y162983D01*
X420793Y162136D01*
X419946D01*
X419100Y162983D01*
X418254Y162136D01*
X417407D01*
X419100Y162983D02*
Y164676D01*
X390738Y236221D02*
Y241299D01*
X393277D01*
X394124Y240453D01*
Y238760D01*
X393277Y237914D01*
X390738D01*
X392431D02*
X394124Y236221D01*
X395816Y241299D02*
X399202D01*
Y240453D01*
X395816Y237067D01*
Y236221D01*
X421218Y374651D02*
Y379729D01*
X423757D01*
X424604Y378883D01*
Y377190D01*
X423757Y376344D01*
X421218D01*
X422911D02*
X424604Y374651D01*
X429682Y379729D02*
X426296D01*
Y377190D01*
X427989Y378036D01*
X428836D01*
X429682Y377190D01*
Y375497D01*
X428836Y374651D01*
X427143D01*
X426296Y375497D01*
X421218Y336151D02*
Y341229D01*
X423757D01*
X424604Y340383D01*
Y338690D01*
X423757Y337844D01*
X421218D01*
X422911D02*
X424604Y336151D01*
X428836D02*
Y341229D01*
X426296Y338690D01*
X429682D01*
X553298Y322581D02*
Y327659D01*
X555837D01*
X556684Y326813D01*
Y325120D01*
X555837Y324274D01*
X553298D01*
X554991D02*
X556684Y322581D01*
X558376Y326813D02*
X559223Y327659D01*
X560916D01*
X561762Y326813D01*
Y325966D01*
X560916Y325120D01*
X560069D01*
X560916D01*
X561762Y324274D01*
Y323427D01*
X560916Y322581D01*
X559223D01*
X558376Y323427D01*
X390738Y353409D02*
Y358488D01*
X393277D01*
X394124Y357641D01*
Y355949D01*
X393277Y355102D01*
X390738D01*
X392431D02*
X394124Y353409D01*
X399202D02*
X395816D01*
X399202Y356795D01*
Y357641D01*
X398356Y358488D01*
X396663D01*
X395816Y357641D01*
X554144Y358141D02*
Y363219D01*
X556684D01*
X557530Y362373D01*
Y360680D01*
X556684Y359834D01*
X554144D01*
X555837D02*
X557530Y358141D01*
X559223D02*
X560916D01*
X560069D01*
Y363219D01*
X559223Y362373D01*
X618914Y356447D02*
Y359833D01*
X618067Y360679D01*
X616375D01*
X615528Y359833D01*
Y356447D01*
X616375Y355601D01*
X618067D01*
X617221Y357294D02*
X618914Y355601D01*
X618067D02*
X618914Y356447D01*
X623146Y355601D02*
Y360679D01*
X620606Y358140D01*
X623992D01*
X706544Y356447D02*
Y359833D01*
X705697Y360679D01*
X704005D01*
X703158Y359833D01*
Y356447D01*
X704005Y355601D01*
X705697D01*
X704851Y357294D02*
X706544Y355601D01*
X705697D02*
X706544Y356447D01*
X708236Y359833D02*
X709083Y360679D01*
X710776D01*
X711622Y359833D01*
Y358986D01*
X710776Y358140D01*
X709929D01*
X710776D01*
X711622Y357294D01*
Y356447D01*
X710776Y355601D01*
X709083D01*
X708236Y356447D01*
X625613Y189654D02*
X622227D01*
X621381Y188807D01*
Y187115D01*
X622227Y186268D01*
X625613D01*
X626459Y187115D01*
Y188807D01*
X624766Y187961D02*
X626459Y189654D01*
Y188807D02*
X625613Y189654D01*
X626459Y194732D02*
Y191346D01*
X623074Y194732D01*
X622227D01*
X621381Y193886D01*
Y192193D01*
X622227Y191346D01*
X671333Y187360D02*
X667947D01*
X667101Y186514D01*
Y184821D01*
X667947Y183974D01*
X671333D01*
X672179Y184821D01*
Y186514D01*
X670486Y185667D02*
X672179Y187360D01*
Y186514D02*
X671333Y187360D01*
X672179Y189053D02*
Y190746D01*
Y189899D01*
X667101D01*
X667947Y189053D01*
X380153Y146047D02*
X380999Y146893D01*
Y148586D01*
X380153Y149432D01*
X379306D01*
X378460Y148586D01*
Y146893D01*
X377614Y146047D01*
X376767D01*
X375921Y146893D01*
Y148586D01*
X376767Y149432D01*
X379306Y144354D02*
X376767D01*
X375921Y143507D01*
X376767Y142661D01*
X375921Y141815D01*
X376767Y140968D01*
X379306D01*
X375921Y139276D02*
Y137583D01*
Y138429D01*
X379306D01*
Y139276D01*
X380153Y134197D02*
X379306D01*
Y135044D01*
Y133351D01*
Y134197D01*
X376767D01*
X375921Y133351D01*
X379306Y127426D02*
Y129965D01*
X378460Y130812D01*
X376767D01*
X375921Y129965D01*
Y127426D01*
X380999Y125733D02*
X375921D01*
X378460D01*
X379306Y124887D01*
Y123194D01*
X378460Y122348D01*
X375921D01*
X835661Y185848D02*
X840739D01*
Y188387D01*
X839893Y189233D01*
X839046D01*
X838200Y188387D01*
Y185848D01*
Y188387D01*
X837354Y189233D01*
X836507D01*
X835661Y188387D01*
Y185848D01*
X837354Y190926D02*
X839893D01*
X840739Y191772D01*
Y194312D01*
X837354D01*
X836507Y196851D02*
X837354D01*
Y196004D01*
Y197697D01*
Y196851D01*
X839893D01*
X840739Y197697D01*
X836507Y201083D02*
X837354D01*
Y200236D01*
Y201929D01*
Y201083D01*
X839893D01*
X840739Y201929D01*
Y205315D02*
Y207008D01*
X839893Y207854D01*
X838200D01*
X837354Y207008D01*
Y205315D01*
X838200Y204468D01*
X839893D01*
X840739Y205315D01*
Y209547D02*
X837354D01*
Y212086D01*
X838200Y212932D01*
X840739D01*
X380999Y428835D02*
Y430528D01*
X380153Y431375D01*
X376767D01*
X375921Y430528D01*
Y428835D01*
X376767Y427989D01*
X380153D01*
X380999Y428835D01*
X379306Y426296D02*
X376767D01*
X375921Y425450D01*
Y422911D01*
X379306D01*
X380153Y420372D02*
X379306D01*
Y421218D01*
Y419525D01*
Y420372D01*
X376767D01*
X375921Y419525D01*
X1202693Y254846D02*
X1206078D01*
X1204386D01*
Y249767D01*
X1207771Y253153D02*
Y249767D01*
Y251460D01*
X1208618Y252306D01*
X1209464Y253153D01*
X1210310D01*
X1212850Y249767D02*
X1214542D01*
X1213696D01*
Y253153D01*
X1212850D01*
X1218774Y248074D02*
X1219621D01*
X1220467Y248921D01*
Y253153D01*
X1217928D01*
X1217082Y252306D01*
Y250614D01*
X1217928Y249767D01*
X1220467D01*
X1082889Y253999D02*
X1081196D01*
X1080350Y253153D01*
Y249767D01*
X1081196Y248921D01*
X1082889D01*
X1083735Y249767D01*
Y253153D01*
X1082889Y253999D01*
X1085428D02*
Y248921D01*
X1088814D01*
X1093892Y253999D02*
X1090506D01*
Y248921D01*
X1093892D01*
X1090506Y251460D02*
X1092199D01*
X1095585Y253999D02*
Y248921D01*
X1098124D01*
X1098970Y249767D01*
Y253153D01*
X1098124Y253999D01*
X1095585D01*
X814069Y215908D02*
X808991D01*
Y218447D01*
X809837Y219294D01*
X811530D01*
X812376Y218447D01*
Y215908D01*
X814069Y220987D02*
Y222679D01*
Y221833D01*
X810684D01*
Y220987D01*
X809837Y226065D02*
X810684D01*
Y225219D01*
Y226911D01*
Y226065D01*
X813223D01*
X814069Y226911D01*
X810684Y232836D02*
Y230297D01*
X811530Y229450D01*
X813223D01*
X814069Y230297D01*
Y232836D01*
X808991Y234529D02*
X814069D01*
X811530D01*
X810684Y235375D01*
Y237068D01*
X811530Y237915D01*
X814069D01*
X808991Y244686D02*
X814069D01*
X812376Y246378D01*
X814069Y248071D01*
X808991D01*
Y249764D02*
X814069D01*
X811530D01*
X810684Y250610D01*
Y252303D01*
X811530Y253150D01*
X814069D01*
Y257381D02*
Y255689D01*
X813223Y254842D01*
X811530D01*
X810684Y255689D01*
Y257381D01*
X811530Y258228D01*
X812376D01*
Y254842D01*
X814069Y262460D02*
Y260767D01*
X813223Y259921D01*
X811530D01*
X810684Y260767D01*
Y262460D01*
X811530Y263306D01*
X812376D01*
Y259921D01*
X814069Y264999D02*
Y266692D01*
Y265845D01*
X808991D01*
Y264999D01*
X985525Y205741D02*
Y210819D01*
X988064D01*
X988910Y209973D01*
Y208280D01*
X988064Y207434D01*
X985525D01*
X987217D02*
X988910Y205741D01*
X990603D02*
X992296D01*
X991449D01*
Y209126D01*
X990603D01*
X994835Y210819D02*
Y205741D01*
X997374D01*
X998220Y206587D01*
Y207434D01*
Y208280D01*
X997374Y209126D01*
X994835D01*
X999913Y210819D02*
Y205741D01*
X1002452D01*
X1003299Y206587D01*
Y207434D01*
Y208280D01*
X1002452Y209126D01*
X999913D01*
X1005838Y205741D02*
X1007531D01*
X1008377Y206587D01*
Y208280D01*
X1007531Y209126D01*
X1005838D01*
X1004992Y208280D01*
Y206587D01*
X1005838Y205741D01*
X1010070D02*
Y209126D01*
X1012609D01*
X1013456Y208280D01*
Y205741D01*
X382269Y531274D02*
X378884D01*
X377191Y529581D01*
X378884Y527889D01*
X382269D01*
X377191Y525349D02*
Y523657D01*
X378037Y522810D01*
X379730D01*
X380576Y523657D01*
Y525349D01*
X379730Y526196D01*
X378037D01*
X377191Y525349D01*
Y521117D02*
Y519425D01*
Y520271D01*
X382269D01*
Y521117D01*
X380576Y516885D02*
X378037D01*
X377191Y516039D01*
Y513500D01*
X380576D01*
X377191Y511807D02*
X380576D01*
Y510961D01*
X379730Y510114D01*
X377191D01*
X379730D01*
X380576Y509268D01*
X379730Y508422D01*
X377191D01*
Y504190D02*
Y505882D01*
X378037Y506729D01*
X379730D01*
X380576Y505882D01*
Y504190D01*
X379730Y503343D01*
X378884D01*
Y506729D01*
X382269Y496572D02*
X377191D01*
X378884Y494879D01*
X377191Y493186D01*
X382269D01*
Y491494D02*
X377191D01*
X379730D01*
X380576Y490647D01*
Y488955D01*
X379730Y488108D01*
X377191D01*
Y483876D02*
Y485569D01*
X378037Y486415D01*
X379730D01*
X380576Y485569D01*
Y483876D01*
X379730Y483030D01*
X378884D01*
Y486415D01*
X377191Y478798D02*
Y480491D01*
X378037Y481337D01*
X379730D01*
X380576Y480491D01*
Y478798D01*
X379730Y477951D01*
X378884D01*
Y481337D01*
X377191Y476259D02*
Y474566D01*
Y475412D01*
X382269D01*
Y476259D01*
X380999Y601130D02*
Y604516D01*
X378460D01*
Y602823D01*
Y604516D01*
X375921D01*
Y599437D02*
Y597745D01*
Y598591D01*
X379306D01*
Y599437D01*
X375921Y595206D02*
Y593513D01*
Y594359D01*
X380999D01*
Y595206D01*
X380153Y590127D02*
X379306D01*
Y590974D01*
Y589281D01*
Y590127D01*
X376767D01*
X375921Y589281D01*
Y584202D02*
Y585895D01*
X376767Y586742D01*
X378460D01*
X379306Y585895D01*
Y584202D01*
X378460Y583356D01*
X377614D01*
Y586742D01*
X379306Y581663D02*
X375921D01*
X377614D01*
X378460Y580817D01*
X379306Y579971D01*
Y579124D01*
X1115064Y287443D02*
X1114218Y288289D01*
X1112525D01*
X1111678Y287443D01*
Y286596D01*
X1112525Y285750D01*
X1114218D01*
X1115064Y284904D01*
Y284057D01*
X1114218Y283211D01*
X1112525D01*
X1111678Y284057D01*
X1116757Y286596D02*
Y284057D01*
X1117603Y283211D01*
X1120143D01*
Y286596D01*
X1121835Y283211D02*
X1124374D01*
X1125221Y284057D01*
X1124374Y284904D01*
X1122682D01*
X1121835Y285750D01*
X1122682Y286596D01*
X1125221D01*
X1127760Y287443D02*
Y286596D01*
X1126914D01*
X1128606D01*
X1127760D01*
Y284057D01*
X1128606Y283211D01*
X1131992Y286596D02*
X1133685D01*
X1134531Y285750D01*
Y283211D01*
X1131992D01*
X1131146Y284057D01*
X1131992Y284904D01*
X1134531D01*
X1136224Y283211D02*
X1137917D01*
X1137070D01*
Y286596D01*
X1136224D01*
X1140456Y283211D02*
Y286596D01*
X1142995D01*
X1143841Y285750D01*
Y283211D01*
X895355Y308611D02*
Y313689D01*
X897895D01*
X898741Y312843D01*
Y311150D01*
X897895Y310304D01*
X895355D01*
X897048D02*
X898741Y308611D01*
X902973D02*
X901280D01*
X900434Y309457D01*
Y311150D01*
X901280Y311996D01*
X902973D01*
X903819Y311150D01*
Y310304D01*
X900434D01*
X905512Y308611D02*
X907205D01*
X906358D01*
Y313689D01*
X905512D01*
X912283Y308611D02*
X910590D01*
X909744Y309457D01*
Y311150D01*
X910590Y311996D01*
X912283D01*
X913130Y311150D01*
Y310304D01*
X909744D01*
X915669Y311996D02*
X917362D01*
X918208Y311150D01*
Y308611D01*
X915669D01*
X914822Y309457D01*
X915669Y310304D01*
X918208D01*
X919901Y308611D02*
X922440D01*
X923286Y309457D01*
X922440Y310304D01*
X920747D01*
X919901Y311150D01*
X920747Y311996D01*
X923286D01*
X927518Y308611D02*
X925826D01*
X924979Y309457D01*
Y311150D01*
X925826Y311996D01*
X927518D01*
X928365Y311150D01*
Y310304D01*
X924979D01*
X896201Y247651D02*
Y251036D01*
X897894Y252729D01*
X899586Y251036D01*
Y247651D01*
Y250190D01*
X896201D01*
X902126Y251883D02*
Y251036D01*
X901279D01*
X902972D01*
X902126D01*
Y248497D01*
X902972Y247651D01*
X906358Y251883D02*
Y251036D01*
X905511D01*
X907204D01*
X906358D01*
Y248497D01*
X907204Y247651D01*
X910590Y251036D02*
X912282D01*
X913129Y250190D01*
Y247651D01*
X910590D01*
X909743Y248497D01*
X910590Y249344D01*
X913129D01*
X918207Y251036D02*
X915668D01*
X914822Y250190D01*
Y248497D01*
X915668Y247651D01*
X918207D01*
X919900D02*
Y252729D01*
Y249344D02*
X922439Y251036D01*
X919900Y249344D02*
X922439Y247651D01*
X838201Y51653D02*
X843279D01*
Y55038D01*
X838201Y60117D02*
Y56731D01*
X840740D01*
Y58424D01*
Y56731D01*
X843279D01*
X838201Y64349D02*
Y62656D01*
X839047Y61809D01*
X842433D01*
X843279Y62656D01*
Y64349D01*
X842433Y65195D01*
X839047D01*
X838201Y64349D01*
X839047Y75352D02*
X838201Y74505D01*
Y72812D01*
X839047Y71966D01*
X842433D01*
X843279Y72812D01*
Y74505D01*
X842433Y75352D01*
X839047Y77891D02*
X839894D01*
Y77044D01*
Y78737D01*
Y77891D01*
X842433D01*
X843279Y78737D01*
X839894Y81276D02*
X843279D01*
X841586D01*
X840740Y82123D01*
X839894Y82969D01*
Y83815D01*
X843279Y86355D02*
Y88047D01*
Y87201D01*
X838201D01*
Y86355D01*
X729830Y328929D02*
Y323851D01*
X732369D01*
X733215Y324697D01*
Y325544D01*
X732369Y326390D01*
X729830D01*
X732369D01*
X733215Y327236D01*
Y328083D01*
X732369Y328929D01*
X729830D01*
X737447Y323851D02*
X735754D01*
X734908Y324697D01*
Y326390D01*
X735754Y327236D01*
X737447D01*
X738294Y326390D01*
Y325544D01*
X734908D01*
X739986Y323851D02*
Y327236D01*
X742526D01*
X743372Y326390D01*
Y323851D01*
X748450Y328929D02*
Y323851D01*
X745911D01*
X745065Y324697D01*
Y326390D01*
X745911Y327236D01*
X748450D01*
X729828Y184149D02*
X726443D01*
Y181610D01*
X728136D01*
X726443D01*
Y179071D01*
X731521D02*
X733214D01*
X732368D01*
Y182456D01*
X731521D01*
X735753Y179071D02*
Y182456D01*
X738292D01*
X739139Y181610D01*
Y179071D01*
X743371D02*
X741678D01*
X740832Y179917D01*
Y181610D01*
X741678Y182456D01*
X743371D01*
X744217Y181610D01*
Y180764D01*
X740832D01*
X729829Y368299D02*
Y363221D01*
X733214D01*
X738293Y368299D02*
X734907D01*
Y365760D01*
X736600D01*
X734907D01*
Y363221D01*
X742525Y368299D02*
X740832D01*
X739986Y367453D01*
Y364067D01*
X740832Y363221D01*
X742525D01*
X743371Y364067D01*
Y367453D01*
X742525Y368299D01*
X731947Y254423D02*
X731100Y255269D01*
X729408D01*
X728561Y254423D01*
Y251037D01*
X729408Y250191D01*
X731100D01*
X731947Y251037D01*
X734486Y250191D02*
X736179D01*
X737025Y251037D01*
Y252730D01*
X736179Y253576D01*
X734486D01*
X733640Y252730D01*
Y251037D01*
X734486Y250191D01*
X739565Y253576D02*
X741257D01*
X742104Y252730D01*
Y250191D01*
X739565D01*
X738718Y251037D01*
X739565Y251884D01*
X742104D01*
X743796Y253576D02*
Y250191D01*
Y251884D01*
X744643Y252730D01*
X745489Y253576D01*
X746336D01*
X748875Y250191D02*
X751414D01*
X752260Y251037D01*
X751414Y251884D01*
X749721D01*
X748875Y252730D01*
X749721Y253576D01*
X752260D01*
X756492Y250191D02*
X754799D01*
X753953Y251037D01*
Y252730D01*
X754799Y253576D01*
X756492D01*
X757339Y252730D01*
Y251884D01*
X753953D01*
X1266191Y308610D02*
Y306917D01*
Y307764D01*
X1270423D01*
X1271269Y306917D01*
Y306071D01*
X1270423Y305224D01*
X1271269Y310303D02*
Y311996D01*
Y311149D01*
X1266191D01*
X1267037Y310303D01*
X994412Y303529D02*
Y298451D01*
X996951D01*
X997798Y299297D01*
Y302683D01*
X996951Y303529D01*
X994412D01*
X999490Y298451D02*
X1001183D01*
X1000337D01*
Y303529D01*
X999490Y302683D01*
X1007108Y298451D02*
X1003722D01*
X1007108Y301836D01*
Y302683D01*
X1006262Y303529D01*
X1004569D01*
X1003722Y302683D01*
X910169Y336549D02*
Y331471D01*
X912708D01*
X913554Y332317D01*
Y335703D01*
X912708Y336549D01*
X910169D01*
X915247Y331471D02*
X916940D01*
X916093D01*
Y336549D01*
X915247Y335703D01*
X919479Y331471D02*
X921172D01*
X920325D01*
Y336549D01*
X919479Y335703D01*
X908052Y372109D02*
Y367031D01*
X910591D01*
X911438Y367877D01*
Y371263D01*
X910591Y372109D01*
X908052D01*
X913130Y367031D02*
X914823D01*
X913977D01*
Y372109D01*
X913130Y371263D01*
X917362D02*
X918209Y372109D01*
X919902D01*
X920748Y371263D01*
Y367877D01*
X919902Y367031D01*
X918209D01*
X917362Y367877D01*
Y371263D01*
X1203961Y364068D02*
X1209039D01*
Y366607D01*
X1208193Y367454D01*
X1204807D01*
X1203961Y366607D01*
Y364068D01*
X1208193Y369146D02*
X1209039Y369993D01*
Y371686D01*
X1208193Y372532D01*
X1204807D01*
X1203961Y371686D01*
Y369993D01*
X1204807Y369146D01*
X1205654D01*
X1206500Y369993D01*
Y372532D01*
X1197188Y406399D02*
Y401321D01*
X1199727D01*
X1200574Y402167D01*
Y405553D01*
X1199727Y406399D01*
X1197188D01*
X1202266Y405553D02*
X1203113Y406399D01*
X1204806D01*
X1205652Y405553D01*
Y404706D01*
X1204806Y403860D01*
X1205652Y403014D01*
Y402167D01*
X1204806Y401321D01*
X1203113D01*
X1202266Y402167D01*
Y403014D01*
X1203113Y403860D01*
X1202266Y404706D01*
Y405553D01*
X1203113Y403860D02*
X1204806D01*
X657438Y137159D02*
Y132081D01*
X659977D01*
X660824Y132927D01*
Y136313D01*
X659977Y137159D01*
X657438D01*
X662516D02*
X665902D01*
Y136313D01*
X662516Y132927D01*
Y132081D01*
X419101Y251044D02*
X424179D01*
Y253584D01*
X423333Y254430D01*
X419947D01*
X419101Y253584D01*
Y251044D01*
Y259508D02*
X419947Y257815D01*
X421640Y256123D01*
X423333D01*
X424179Y256969D01*
Y258662D01*
X423333Y259508D01*
X422486D01*
X421640Y258662D01*
Y256123D01*
X407669Y301412D02*
X402591D01*
Y298873D01*
X403437Y298026D01*
X406823D01*
X407669Y298873D01*
Y301412D01*
Y292948D02*
Y296334D01*
X405130D01*
X405976Y294641D01*
Y293794D01*
X405130Y292948D01*
X403437D01*
X402591Y293794D01*
Y295487D01*
X403437Y296334D01*
X1261958Y370839D02*
Y365761D01*
X1264497D01*
X1265344Y366607D01*
Y369993D01*
X1264497Y370839D01*
X1261958D01*
X1269576Y365761D02*
Y370839D01*
X1267036Y368300D01*
X1270422D01*
X1261958Y331469D02*
Y326391D01*
X1264497D01*
X1265344Y327237D01*
Y330623D01*
X1264497Y331469D01*
X1261958D01*
X1267036Y330623D02*
X1267883Y331469D01*
X1269576D01*
X1270422Y330623D01*
Y329776D01*
X1269576Y328930D01*
X1268729D01*
X1269576D01*
X1270422Y328084D01*
Y327237D01*
X1269576Y326391D01*
X1267883D01*
X1267036Y327237D01*
X629921Y122768D02*
X634999D01*
Y125307D01*
X634153Y126154D01*
X630767D01*
X629921Y125307D01*
Y122768D01*
X634999Y131232D02*
Y127846D01*
X631614Y131232D01*
X630767D01*
X629921Y130386D01*
Y128693D01*
X630767Y127846D01*
X1247564Y659129D02*
Y654051D01*
X1250104D01*
X1250950Y654897D01*
Y658283D01*
X1250104Y659129D01*
X1247564D01*
X1252643Y654051D02*
X1254336D01*
X1253489D01*
Y659129D01*
X1252643Y658283D01*
X389164Y664633D02*
X388318Y665479D01*
X386625D01*
X385779Y664633D01*
Y661247D01*
X386625Y660401D01*
X388318D01*
X389164Y661247D01*
X394243Y660401D02*
X390857D01*
X394243Y663786D01*
Y664633D01*
X393396Y665479D01*
X391704D01*
X390857Y664633D01*
X395936D02*
X396782Y665479D01*
X398475D01*
X399321Y664633D01*
Y661247D01*
X398475Y660401D01*
X396782D01*
X395936Y661247D01*
Y664633D01*
X934297Y257388D02*
X933451Y256541D01*
Y254848D01*
X934297Y254002D01*
X937683D01*
X938529Y254848D01*
Y256541D01*
X937683Y257388D01*
X938529Y259080D02*
Y260773D01*
Y259927D01*
X933451D01*
X934297Y259080D01*
Y263312D02*
X933451Y264159D01*
Y265852D01*
X934297Y266698D01*
X935144D01*
X935990Y265852D01*
X936836Y266698D01*
X937683D01*
X938529Y265852D01*
Y264159D01*
X937683Y263312D01*
X936836D01*
X935990Y264159D01*
X935144Y263312D01*
X934297D01*
X935990Y264159D02*
Y265852D01*
X1207348Y309033D02*
X1206501Y309879D01*
X1204809D01*
X1203962Y309033D01*
Y305647D01*
X1204809Y304801D01*
X1206501D01*
X1207348Y305647D01*
X1209040Y304801D02*
X1210733D01*
X1209887D01*
Y309879D01*
X1209040Y309033D01*
X1213272Y309879D02*
X1216658D01*
Y309033D01*
X1213272Y305647D01*
Y304801D01*
X836507Y16088D02*
X835661Y15241D01*
Y13549D01*
X836507Y12702D01*
X839893D01*
X840739Y13549D01*
Y15241D01*
X839893Y16088D01*
X840739Y17780D02*
Y19473D01*
Y18627D01*
X835661D01*
X836507Y17780D01*
X835661Y25398D02*
X836507Y23705D01*
X838200Y22012D01*
X839893D01*
X840739Y22859D01*
Y24552D01*
X839893Y25398D01*
X839046D01*
X838200Y24552D01*
Y22012D01*
X808568Y102023D02*
X807721Y102869D01*
X806029D01*
X805182Y102023D01*
Y98637D01*
X806029Y97791D01*
X807721D01*
X808568Y98637D01*
X810260Y97791D02*
X811953D01*
X811107D01*
Y102869D01*
X810260Y102023D01*
X817878Y102869D02*
X814492D01*
Y100330D01*
X816185Y101176D01*
X817032D01*
X817878Y100330D01*
Y98637D01*
X817032Y97791D01*
X815339D01*
X814492Y98637D01*
X496148Y155363D02*
X495301Y156209D01*
X493609D01*
X492762Y155363D01*
Y151977D01*
X493609Y151131D01*
X495301D01*
X496148Y151977D01*
X497840Y151131D02*
X499533D01*
X498687D01*
Y156209D01*
X497840Y155363D01*
X504612Y151131D02*
Y156209D01*
X502072Y153670D01*
X505458D01*
X412327Y198968D02*
X411481Y198121D01*
Y196429D01*
X412327Y195582D01*
X415713D01*
X416559Y196429D01*
Y198121D01*
X415713Y198968D01*
X416559Y200660D02*
Y202353D01*
Y201507D01*
X411481D01*
X412327Y200660D01*
Y204892D02*
X411481Y205739D01*
Y207432D01*
X412327Y208278D01*
X413174D01*
X414020Y207432D01*
Y206585D01*
Y207432D01*
X414866Y208278D01*
X415713D01*
X416559Y207432D01*
Y205739D01*
X415713Y204892D01*
X1255607Y411058D02*
X1254761Y410211D01*
Y408518D01*
X1255607Y407672D01*
X1258993D01*
X1259839Y408518D01*
Y410211D01*
X1258993Y411058D01*
X1259839Y412750D02*
Y414443D01*
Y413597D01*
X1254761D01*
X1255607Y412750D01*
X1259839Y420368D02*
Y416982D01*
X1256454Y420368D01*
X1255607D01*
X1254761Y419522D01*
Y417829D01*
X1255607Y416982D01*
X1352973Y416136D02*
X1353819Y416982D01*
Y418675D01*
X1352973Y419521D01*
X1349587D01*
X1348741Y418675D01*
Y416982D01*
X1349587Y416136D01*
X1348741Y414443D02*
Y412750D01*
Y413597D01*
X1353819D01*
X1352973Y414443D01*
X1348741Y410211D02*
Y408518D01*
Y409365D01*
X1353819D01*
X1352973Y410211D01*
X933028Y650473D02*
X932181Y651319D01*
X930489D01*
X929642Y650473D01*
Y647087D01*
X930489Y646241D01*
X932181D01*
X933028Y647087D01*
X934720Y646241D02*
X936413D01*
X935567D01*
Y651319D01*
X934720Y650473D01*
X938952D02*
X939799Y651319D01*
X941492D01*
X942338Y650473D01*
Y647087D01*
X941492Y646241D01*
X939799D01*
X938952Y647087D01*
Y650473D01*
X690034Y651933D02*
X689187Y652779D01*
X687495D01*
X686648Y651933D01*
Y648547D01*
X687495Y647701D01*
X689187D01*
X690034Y648547D01*
X691726D02*
X692573Y647701D01*
X694266D01*
X695112Y648547D01*
Y651933D01*
X694266Y652779D01*
X692573D01*
X691726Y651933D01*
Y651086D01*
X692573Y650240D01*
X695112D01*
X450004Y651933D02*
X449157Y652779D01*
X447464D01*
X446618Y651933D01*
Y648547D01*
X447464Y647701D01*
X449157D01*
X450004Y648547D01*
X451696Y651933D02*
X452543Y652779D01*
X454236D01*
X455082Y651933D01*
Y651086D01*
X454236Y650240D01*
X455082Y649394D01*
Y648547D01*
X454236Y647701D01*
X452543D01*
X451696Y648547D01*
Y649394D01*
X452543Y650240D01*
X451696Y651086D01*
Y651933D01*
X452543Y650240D02*
X454236D01*
X557954Y286173D02*
X557107Y287019D01*
X555415D01*
X554568Y286173D01*
Y282787D01*
X555415Y281941D01*
X557107D01*
X557954Y282787D01*
X559646Y287019D02*
X563032D01*
Y286173D01*
X559646Y282787D01*
Y281941D01*
X564304Y240453D02*
X563457Y241299D01*
X561764D01*
X560918Y240453D01*
Y237067D01*
X561764Y236221D01*
X563457D01*
X564304Y237067D01*
X569382Y241299D02*
X567689Y240453D01*
X565996Y238760D01*
Y237067D01*
X566843Y236221D01*
X568536D01*
X569382Y237067D01*
Y237914D01*
X568536Y238760D01*
X565996D01*
X1261534Y617643D02*
X1260687Y618489D01*
X1258995D01*
X1258148Y617643D01*
Y614257D01*
X1258995Y613411D01*
X1260687D01*
X1261534Y614257D01*
X1266612Y618489D02*
X1263226D01*
Y615950D01*
X1264919Y616796D01*
X1265766D01*
X1266612Y615950D01*
Y614257D01*
X1265766Y613411D01*
X1264073D01*
X1263226Y614257D01*
X1310626Y617643D02*
X1309779Y618489D01*
X1308087D01*
X1307240Y617643D01*
Y614257D01*
X1308087Y613411D01*
X1309779D01*
X1310626Y614257D01*
X1314858Y613411D02*
Y618489D01*
X1312319Y615950D01*
X1315704D01*
X811954Y630343D02*
X811107Y631189D01*
X809415D01*
X808568Y630343D01*
Y626957D01*
X809415Y626111D01*
X811107D01*
X811954Y626957D01*
X817032Y626111D02*
X813646D01*
X817032Y629496D01*
Y630343D01*
X816186Y631189D01*
X814493D01*
X813646Y630343D01*
X568960D02*
X568114Y631189D01*
X566421D01*
X565574Y630343D01*
Y626957D01*
X566421Y626111D01*
X568114D01*
X568960Y626957D01*
X570653Y626111D02*
X572346D01*
X571499D01*
Y631189D01*
X570653Y630343D01*
D16*
X1273724Y794125D02*
X1276886Y797287D01*
X1266619Y794125D02*
X1273724D01*
X1264557Y792063D02*
X1266619Y794125D01*
X1178753Y799976D02*
X1181277Y802500D01*
X1168483Y797436D02*
X1171023Y799976D01*
X1162031Y797436D02*
X1168483D01*
X1171023Y799976D02*
X1178753D01*
X1257729Y792063D02*
X1264557D01*
X1206831Y807844D02*
X1209123Y810136D01*
X1216422D01*
X1219209Y812923D01*
X1190073Y805056D02*
X1197486D01*
X1187516Y802500D02*
X1190073Y805056D01*
X1181277Y802500D02*
X1187516D01*
X1197486Y805056D02*
X1200274Y807844D01*
X1206831D01*
D17*
X1272199Y824261D02*
Y829279D01*
X1274708D01*
X1275544Y828443D01*
Y826770D01*
X1274708Y825934D01*
X1272199D01*
X1277217Y829279D02*
Y824261D01*
X1278890Y825934D01*
X1280563Y824261D01*
Y829279D01*
X1282236Y824261D02*
Y829279D01*
X1284745D01*
X1285581Y828443D01*
Y826770D01*
X1284745Y825934D01*
X1282236D01*
X1283908D02*
X1285581Y824261D01*
X1179408Y721783D02*
X1178561Y722629D01*
X1176869D01*
X1176022Y721783D01*
Y718397D01*
X1176869Y717551D01*
X1178561D01*
X1179408Y718397D01*
X1181100Y717551D02*
X1182793D01*
X1181947D01*
Y722629D01*
X1181100Y721783D01*
X1185332Y718397D02*
X1186179Y717551D01*
X1187872D01*
X1188718Y718397D01*
Y721783D01*
X1187872Y722629D01*
X1186179D01*
X1185332Y721783D01*
Y720936D01*
X1186179Y720090D01*
X1188718D01*
X508422Y411481D02*
Y415713D01*
X507575Y416559D01*
X505883D01*
X505036Y415713D01*
Y411481D01*
X503344D02*
X499958D01*
Y412327D01*
X503344Y415713D01*
Y416559D01*
X1236135Y271781D02*
Y276859D01*
X1238674D01*
X1239521Y276013D01*
Y274320D01*
X1238674Y273474D01*
X1236135D01*
X1237828D02*
X1239521Y271781D01*
X1244599Y276859D02*
X1241214D01*
Y274320D01*
X1242906Y275166D01*
X1243753D01*
X1244599Y274320D01*
Y272627D01*
X1243753Y271781D01*
X1242060D01*
X1241214Y272627D01*
X1246292Y271781D02*
X1247985D01*
X1247138D01*
Y276859D01*
X1246292Y276013D01*
D18*
X1217812Y788371D02*
D03*
X1179083Y778390D02*
D03*
X1275500Y772818D02*
D03*
X1253937Y767484D02*
D03*
X1158312Y773044D02*
D03*
X1198081Y783734D02*
D03*
X1236205Y783559D02*
D03*
M02*
